<svg width="70%"  height="276" viewBox="0 0 556 276" fill="none" xmlns="http://www.w3.org/2000/svg">
<path d="M218.485 275.354C212.004 275.354 206.75 270.101 206.75 263.619V241.888H230.22V263.619C230.22 270.101 224.966 275.354 218.485 275.354Z" fill="#4A4A4A"/>
<path d="M335.833 275.354C329.352 275.354 324.098 270.101 324.098 263.619V241.888H347.568V263.619C347.568 270.101 342.314 275.354 335.833 275.354Z" fill="#4A4A4A"/>
<path d="M230.376 26.2618H253.688V93.8111H230.376V26.2618Z" fill="#4A4A4A"/>
<path d="M300.628 26.2618H323.94V93.8111H300.628V26.2618Z" fill="#4A4A4A"/>
<path d="M322.94 31.4182H231.376C223.142 31.4182 216.466 24.7429 216.466 16.508V15.4197C216.466 7.18487 223.142 0.509521 231.376 0.509521H322.941C331.176 0.509521 337.851 7.18487 337.851 15.4197V16.508C337.85 24.7429 331.175 31.4182 322.94 31.4182Z" fill="#F5A131"/>
<path d="M173.201 107.497C173.201 81.7288 194.091 60.839 219.86 60.839H334.455C360.223 60.839 381.113 81.7288 381.113 107.497V231.565C381.113 245.371 369.921 256.564 356.114 256.564H198.2C184.393 256.564 173.201 245.371 173.201 231.565V107.497Z" fill="#F5A131"/>
<path d="M214.373 253.395C201.676 231.155 203.077 202.002 202.121 177.161C200.931 146.252 204.345 70.3571 204.864 63.3157C186.455 69.5624 173.201 86.9761 173.201 107.497V231.565C173.201 245.372 184.393 256.564 198.2 256.564H216.266C215.62 255.517 214.984 254.464 214.373 253.395Z" fill="#F5A131"/>
<path d="M134.508 154.581H117.019C105.343 154.581 95.8775 145.115 95.8775 133.44V121.367H71.6798C60.0046 121.367 50.5386 111.901 50.5386 100.226V88.1526H27.248C16.207 88.1526 6.34598 80.0798 5.30114 69.0882C4.10035 56.4799 13.9822 45.8704 26.3435 45.8704H134.511C164.53 45.8704 188.866 70.2058 188.866 100.226C188.861 130.245 164.525 154.581 134.508 154.581Z" fill="#B2E6E5"/>
<path d="M118.789 133.439V132.823C118.789 126.497 113.661 121.366 107.332 121.366H95.875V133.439C95.875 145.114 105.341 154.58 117.016 154.58H134.506C135.61 154.58 136.704 154.536 137.791 154.471C127.119 153.4 118.789 144.392 118.789 133.439Z" fill="#B2E6E5"/>
<path d="M28.2105 69.0901C27.0097 56.4793 36.8915 45.8749 49.2529 45.8749H26.3391C13.9803 45.8749 4.09593 56.4819 5.29672 69.0901C6.34416 80.0818 16.2026 88.1546 27.2436 88.1546H50.1573C39.1163 88.1546 29.2579 80.0818 28.2105 69.0901Z" fill="#B2E6E5"/>
<path d="M73.4513 100.226V99.6096C73.4513 93.2834 68.3233 88.1527 61.9945 88.1527H50.5376V100.226C50.5376 111.901 60.0035 121.367 71.6787 121.367H94.5925C82.9147 121.367 73.4513 111.901 73.4513 100.226Z" fill="#B2E6E5"/>
<path d="M134.503 159.779H117.014C102.49 159.779 90.6744 147.963 90.6744 133.439V126.565H71.6749C57.1511 126.565 45.3355 114.749 45.3355 100.225V93.3506H27.2431C13.3041 93.3506 1.38978 82.91 0.118811 69.5791C-0.585548 62.1639 1.86541 54.772 6.8453 49.2957C11.8278 43.8168 18.9312 40.6719 26.336 40.6719H134.503C167.34 40.6719 194.057 67.3881 194.057 100.225C194.057 133.062 167.343 159.779 134.503 159.779ZM26.3386 51.0683C21.8578 51.0683 17.5588 52.9708 14.5387 56.2899C11.4795 59.6531 10.037 64.0249 10.4711 68.5941C11.2378 76.6461 18.6037 82.9542 27.2431 82.9542H50.5337C53.4031 82.9542 55.732 85.283 55.732 88.1524V100.225C55.732 109.015 62.8821 116.168 71.6749 116.168H95.8726C98.742 116.168 101.071 118.497 101.071 121.366V133.439C101.071 142.229 108.221 149.382 117.014 149.382H134.503C161.607 149.382 183.66 127.331 183.66 100.225C183.66 73.1191 161.609 51.0683 134.503 51.0683H26.3386Z" fill="#4A4A4A"/>
<path d="M74.4812 93.3508H50.5356C47.6662 93.3508 45.3374 91.022 45.3374 88.1526C45.3374 85.2831 47.6662 82.9543 50.5356 82.9543H74.4812C77.3506 82.9543 79.6794 85.2831 79.6794 88.1526C79.6794 91.022 77.3506 93.3508 74.4812 93.3508Z" fill="#4A4A4A"/>
<path d="M120.043 126.565H96.0976C93.2282 126.565 90.8994 124.236 90.8994 121.367C90.8994 118.498 93.2282 116.169 96.0976 116.169H120.043C122.913 116.169 125.241 118.498 125.241 121.367C125.241 124.236 122.915 126.565 120.043 126.565Z" fill="#4A4A4A"/>
<path d="M421.087 155.15H438.655C450.384 155.15 459.892 145.642 459.892 133.916V121.789H484.2C495.928 121.789 505.437 112.281 505.437 100.554V88.4281H528.833C539.924 88.4281 549.83 80.3195 550.88 69.2792C552.086 56.6151 542.159 45.9585 529.742 45.9585H421.084C390.928 45.9585 366.482 70.4017 366.482 100.554C366.488 130.707 390.933 155.15 421.087 155.15Z" fill="#B2E6E5"/>
<path d="M437.285 133.581V132.952C437.285 126.498 442.508 121.263 448.949 121.263H460.613V133.581C460.613 145.493 450.976 155.15 439.09 155.15H421.285C420.16 155.15 419.046 155.105 417.94 155.039C428.805 153.947 437.285 144.755 437.285 133.581Z" fill="#B2E6E5"/>
<path d="M527.853 69.3895C529.06 56.6614 519.129 45.9585 506.706 45.9585H529.734C542.154 45.9585 552.087 56.6641 550.881 69.3895C549.828 80.4833 539.921 88.6312 528.825 88.6312H505.797C516.893 88.6312 526.801 80.4833 527.853 69.3895Z" fill="#B2E6E5"/>
<path d="M482.949 100.493V99.8877C482.949 93.6723 488.062 88.6316 494.373 88.6316H505.796V100.493C505.796 111.964 496.358 121.264 484.716 121.264H461.869C473.513 121.264 482.949 111.964 482.949 100.493Z" fill="#B2E6E5"/>
<path d="M439.452 160.171H422.033C389.326 160.171 362.717 133.429 362.717 100.555C362.717 67.6803 389.324 40.9385 422.033 40.9385H529.768C537.143 40.9385 544.218 44.0841 549.181 49.5714C554.141 55.0535 556.582 62.4558 555.881 69.8763C554.615 83.2212 542.751 93.6728 528.865 93.6728H510.844V100.555C510.844 115.094 499.076 126.922 484.61 126.922H465.686V133.804C465.684 148.343 453.915 160.171 439.452 160.171ZM422.033 51.3459C395.037 51.3459 373.072 73.42 373.072 100.555C373.072 127.687 395.035 149.764 422.033 149.764H439.452C448.207 149.764 455.331 142.606 455.331 133.804V121.718C455.331 118.846 457.651 116.515 460.509 116.515H484.61C493.365 116.515 500.489 109.357 500.489 100.555V88.4691C500.489 85.5967 502.809 83.2654 505.667 83.2654H528.865C537.47 83.2654 544.806 76.9507 545.57 68.8902C546.002 64.3135 544.565 59.9398 541.518 56.573C538.513 53.253 534.231 51.3459 529.765 51.3459H422.033Z" fill="#4A4A4A"/>
<path d="M505.497 93.6522H480.994C478.057 93.6522 475.674 91.4031 475.674 88.6319C475.674 85.8607 478.057 83.6116 480.994 83.6116H505.497C508.433 83.6116 510.817 85.8607 510.817 88.6319C510.817 91.4031 508.436 93.6522 505.497 93.6522Z" fill="#4A4A4A"/>
<path d="M459.249 126.284H435.621C432.789 126.284 430.491 124.035 430.491 121.263C430.491 118.492 432.789 116.243 435.621 116.243H459.249C462.08 116.243 464.378 118.492 464.378 121.263C464.378 124.035 462.08 126.284 459.249 126.284Z" fill="#4A4A4A"/>
</svg>
