<svg width="60%" viewBox="0 0 548 624" fill="none" xmlns="http://www.w3.org/2000/svg">
<path d="M493.2 85.2444H54.8C24.5839 85.2444 0 109.828 0 140.044V568.702C0 598.918 24.5839 623.502 54.8 623.502H493.2C523.416 623.502 548 598.918 548 568.702V140.044C548 109.828 523.416 85.2444 493.2 85.2444Z" fill="#F93057"/>
<path d="M493.2 85.2444H274V623.502H493.2C523.416 623.502 548 598.918 548 568.702V140.044C548 109.828 523.416 85.2444 493.2 85.2444Z" fill="#E22753"/>
<path d="M456.667 85.2444H91.3336C81.2441 85.2444 73.0669 93.4216 73.0669 103.511V532.169C73.0669 542.258 81.2441 550.435 91.3336 550.435H456.667C466.756 550.435 474.934 542.258 474.934 532.169V103.511C474.934 93.4216 466.756 85.2444 456.667 85.2444Z" fill="#E1EBF0"/>
<path d="M456.667 85.2444H274V550.435H456.667C466.756 550.435 474.933 542.258 474.933 532.169V103.511C474.933 93.4216 466.756 85.2444 456.667 85.2444Z" fill="#CDE1E6"/>
<path d="M220.418 439.618H164.4C154.31 439.618 146.133 431.441 146.133 421.351C146.133 411.262 154.31 403.084 164.4 403.084H220.418C230.507 403.084 238.684 411.262 238.684 421.351C238.684 431.441 230.507 439.618 220.418 439.618Z" fill="#73D1CC"/>
<path d="M220.418 299.573H164.4C154.31 299.573 146.133 291.396 146.133 281.307C146.133 271.217 154.31 263.04 164.4 263.04H220.418C230.507 263.04 238.684 271.217 238.684 281.307C238.684 291.396 230.507 299.573 220.418 299.573Z" fill="#73D1CC"/>
<path d="M328.8 299.573C324.124 299.573 319.448 297.789 315.885 294.222L285.44 263.777C278.305 256.647 278.305 245.078 285.44 237.947C292.571 230.812 304.14 230.812 311.271 237.947L328.8 255.472L370.685 213.592C377.816 206.456 389.384 206.456 396.515 213.592C403.65 220.722 403.65 232.286 396.515 239.422L341.715 294.222C338.152 297.789 333.476 299.573 328.8 299.573Z" fill="#73D1CC"/>
<path d="M328.8 439.618C324.124 439.618 319.448 437.834 315.885 434.266L285.44 403.822C278.305 396.691 278.305 385.122 285.44 377.992C292.571 370.856 304.14 370.856 311.271 377.992L328.8 395.516L370.685 353.636C377.816 346.501 389.384 346.501 396.515 353.636C403.65 360.767 403.65 372.331 396.515 379.466L341.715 434.266C338.152 437.834 333.476 439.618 328.8 439.618Z" fill="#73D1CC"/>
<path d="M389.689 158.311H158.311C148.222 158.311 140.044 150.134 140.044 140.044V66.9778C140.044 56.8883 148.222 48.7111 158.311 48.7111H209.553C217.526 20.6261 243.399 0 274 0C304.601 0 330.474 20.6261 338.447 48.7111H389.689C399.778 48.7111 407.956 56.8883 407.956 66.9778V140.044C407.956 150.134 399.778 158.311 389.689 158.311Z" fill="#FFB533"/>
<path d="M389.689 158.311C399.778 158.311 407.956 150.134 407.956 140.044V66.9778C407.956 56.8883 399.778 48.7111 389.689 48.7111H338.447C330.474 20.6261 304.601 0 274 0V158.311H389.689Z" fill="#FFA300"/>
</svg>
