<svg width="60%" height="150px" viewBox="0 0 757 726" fill="none" xmlns="http://www.w3.org/2000/svg">
<path d="M58.7118 725.152L188.005 617.409L163.946 588.537L0 725.152H58.7118Z" fill="#B3B3B3"/>
<path d="M561.309 368.012C600.858 328.464 653.648 302.393 691.825 311.857C770.536 202.986 789.982 91.0513 682.229 12.6687C648.573 -11.8047 589.307 0.460172 521.112 38.4391C502.372 77.1228 481.357 123.842 467.325 161.248C467.325 141.21 467.325 111.493 467.325 72.48C387.42 128.692 301.754 213.475 233.343 311.547C221.614 353.981 217.507 397.11 222.967 424.422C210.956 420.418 197.263 406.17 184.744 388.971C110.186 452.598 128.983 537.183 101.164 659.513C194.772 640.566 326.35 668.761 382.326 572.944C375.202 571.619 367.909 569.345 363.943 565.379C382.524 556.093 405.681 551.394 426.649 546.751C510.596 494.487 592.23 428.867 653.357 359.732C617.7 339.817 572.944 373.83 561.309 368.012Z" fill="#FBB0B7"/>
<path d="M101.164 659.513C128.983 537.183 110.186 452.598 184.744 388.943C197.263 406.142 210.956 420.408 222.967 424.403C217.507 397.11 221.614 353.962 233.343 311.528C301.754 213.456 387.42 128.692 467.325 72.4611C467.325 111.483 467.325 141.201 467.325 161.238C481.357 123.842 502.372 77.1133 521.094 38.4484C589.288 0.469451 648.564 -11.7955 682.21 12.678C655.293 142.451 288.756 518.387 101.164 659.513Z" fill="#FF5364"/>
</svg>
