<svg width="60%" viewBox="0 0 753 469" fill="none" xmlns="http://www.w3.org/2000/svg">
<path d="M568.506 312.532L610.746 224.822C619.359 206.919 640.336 198.774 658.731 206.084C658.824 206.121 658.915 206.156 659.009 206.194C678.411 214.065 687.694 236.217 679.731 255.582L671.067 276.647" fill="#E0B394"/>
<path d="M360.774 274.198C302.806 231.073 254.32 174.479 254.32 116.99C254.32 52.3835 298.816 0.00146484 353.688 0.00146484C397.58 0.00146484 433.169 41.9121 433.169 93.5912C433.169 41.9121 468.762 0.00146484 512.651 0.00146484C544.731 0.00146484 573.235 17.8764 591.398 45.6477C604.358 65.4052 612.019 90.1439 612.019 116.99C612.019 197.748 516.289 276.719 433.169 319.206C409.197 306.982 384.204 291.691 360.774 274.198Z" fill="#FF5364"/>
<path d="M388.694 274.198C353.082 231.073 323.293 174.479 323.293 116.99C323.293 60.6121 344.114 13.5525 371.814 2.47666C365.992 0.875066 359.928 0 353.688 0C298.817 0 254.32 52.3821 254.32 116.989C254.32 174.477 302.806 231.073 360.774 274.197C384.204 291.688 409.198 306.979 433.169 319.205C418.443 306.982 403.087 291.691 388.694 274.198Z" fill="#FF5364"/>
<path d="M723.898 355.734L473.634 460.122C448.485 470.625 420.374 471.69 394.497 463.166L134.425 377.467C121.064 373.069 106.519 373.746 93.6133 379.411L83.2963 383.927L24.474 247.506L0 190.764L122.011 109.479C159.186 84.7007 205.884 77.5472 248.099 92.0587C249.807 92.6337 251.515 93.2426 253.207 93.9191L482.701 181.953C493.12 185.928 500.832 193.826 504.891 203.247C509.086 212.973 509.442 224.304 504.84 234.791C496.586 253.699 475.208 263.121 455.673 256.439L310.067 206.647C301.052 203.551 291.7 204.195 283.649 207.662C273.67 211.976 265.67 220.601 262.659 232.001C257.737 250.555 267.954 269.751 286.067 276.094L452.931 334.41C467.781 339.603 483.932 339.569 498.75 334.41L690.071 267.468C713.53 259.248 739.306 270.598 749.115 293.345C749.165 293.464 749.217 293.582 749.25 293.683C759.466 317.815 748.084 345.636 723.898 355.734Z" fill="#FEC9A3"/>
<path d="M253.207 93.9176C253.207 93.9176 82.2992 137.993 29.0229 239.472C27.5007 242.381 25.9785 245.053 24.4725 247.505L0 190.764L122.011 109.479C159.186 84.7007 205.884 77.5472 248.099 92.0587C249.807 92.6322 251.515 93.2411 253.207 93.9176Z" fill="#E0B394"/>
</svg>
