<svg width="150" viewBox="0 0 496 257" fill="none" xmlns="http://www.w3.org/2000/svg">
<path d="M8 80.3389V248.339H488V80.3389H8ZM175.52 172.819C174.41 173.938 173.089 174.825 171.633 175.429C170.177 176.034 168.616 176.343 167.04 176.339H142.48L125.68 224.339H109.68L113.68 176.339H81.04L72.4 192.339H49.28L54.24 178.019L57.2 166.179L54.24 154.339L49.28 136.339H72.4L81.04 152.339H113.68L109.68 104.339H125.68L142.48 152.339H166.56C169.249 152.278 171.883 153.097 174.064 154.671C176.244 156.245 177.851 158.488 178.64 161.059C179.206 163.12 179.216 165.294 178.667 167.36C178.119 169.426 177.033 171.31 175.52 172.819Z" fill="#73D1CC"/>
<path d="M24 8.33887H88V40.3389H24V8.33887Z" fill="#73D1CC"/>
<path d="M408 8.33887H472V40.3389H408V8.33887Z" fill="#73D1CC"/>
<path d="M41.7036 189.731C41.288 190.936 41.1665 192.224 41.3492 193.485C41.5319 194.747 42.0136 195.947 42.7541 196.985C43.4946 198.023 44.4724 198.869 45.6062 199.452C46.7399 200.036 47.9966 200.34 49.2716 200.339H72.4237C73.8668 200.339 75.2831 199.949 76.5225 199.209C77.7619 198.47 78.7781 197.409 79.4636 196.139L85.8636 184.339H105.064L101.792 223.675C101.7 224.78 101.838 225.892 102.199 226.941C102.56 227.989 103.134 228.951 103.886 229.766C104.639 230.581 105.552 231.23 106.569 231.673C107.585 232.116 108.683 232.343 109.792 232.339H125.792C127.451 232.339 129.069 231.823 130.422 230.863C131.775 229.902 132.796 228.545 133.344 226.979L148.176 184.339H167.08C169.702 184.352 172.301 183.843 174.724 182.84C177.147 181.837 179.346 180.361 181.192 178.499C183.703 176.008 185.508 172.895 186.42 169.478C187.332 166.06 187.32 162.462 186.384 159.051C185.165 154.749 182.555 150.973 178.963 148.311C175.371 145.649 170.998 144.253 166.528 144.339H148.176L133.256 101.699C132.708 100.133 131.687 98.7754 130.334 97.8151C128.981 96.8547 127.363 96.3389 125.704 96.3389H109.704C108.595 96.3351 107.497 96.5618 106.481 97.0047C105.464 97.4476 104.551 98.097 103.798 98.9117C103.046 99.7264 102.472 100.689 102.111 101.737C101.75 102.786 101.612 103.898 101.704 105.003L105.008 144.339H85.8076L79.4476 132.539C78.7621 131.269 77.7459 130.208 76.5065 129.469C75.2671 128.729 73.8508 128.339 72.4076 128.339H49.2716C48.0406 128.338 46.826 128.622 45.7225 129.167C44.6189 129.713 43.6561 130.506 42.9091 131.484C42.1621 132.463 41.651 133.601 41.4155 134.809C41.1801 136.017 41.2266 137.264 41.5516 138.451L46.4396 156.339L48.9196 166.251L46.6396 175.435L41.7036 189.731ZM67.6476 144.339L73.9996 156.139C74.6858 157.41 75.7033 158.472 76.9442 159.211C78.1851 159.951 79.6031 160.34 81.0476 160.339H113.704C114.813 160.343 115.91 160.116 116.927 159.673C117.943 159.23 118.857 158.581 119.609 157.766C120.361 156.951 120.936 155.989 121.296 154.941C121.657 153.892 121.796 152.78 121.704 151.675L118.4 112.339H120L134.92 154.979C135.467 156.545 136.488 157.902 137.841 158.863C139.194 159.823 140.812 160.339 142.472 160.339H166.472C167.398 160.288 168.318 160.527 169.103 161.021C169.888 161.515 170.501 162.241 170.856 163.099C171.08 163.81 171.102 164.569 170.918 165.291C170.735 166.013 170.353 166.67 169.816 167.187C169.451 167.557 169.017 167.849 168.537 168.047C168.057 168.245 167.543 168.344 167.024 168.339H142.504C140.844 168.339 139.226 168.855 137.873 169.815C136.52 170.775 135.499 172.133 134.952 173.699L120 216.339H118.4L121.68 177.003C121.772 175.898 121.633 174.786 121.272 173.737C120.912 172.689 120.337 171.726 119.585 170.912C118.833 170.097 117.919 169.448 116.903 169.005C115.886 168.562 114.789 168.335 113.68 168.339H81.0476C79.6031 168.337 78.1851 168.727 76.9442 169.467C75.7033 170.206 74.6858 171.268 73.9996 172.539L67.6476 184.339H60.4476L64.9036 168.147C65.2156 166.872 65.2156 165.541 64.9036 164.267L59.7516 144.339H67.6476Z" fill="#126099"/>
<path d="M488 72.3389H448V48.3389H472C474.122 48.3389 476.157 47.496 477.657 45.9957C479.157 44.4954 480 42.4606 480 40.3389V8.33887C480 6.21714 479.157 4.18231 477.657 2.68201C476.157 1.18172 474.122 0.338867 472 0.338867H408C405.878 0.338867 403.843 1.18172 402.343 2.68201C400.843 4.18231 400 6.21714 400 8.33887V40.3389C400 42.4606 400.843 44.4954 402.343 45.9957C403.843 47.496 405.878 48.3389 408 48.3389H432V72.3389H64V48.3389H88C90.1217 48.3389 92.1566 47.496 93.6569 45.9957C95.1571 44.4954 96 42.4606 96 40.3389V8.33887C96 6.21714 95.1571 4.18231 93.6569 2.68201C92.1566 1.18172 90.1217 0.338867 88 0.338867H24C21.8783 0.338867 19.8434 1.18172 18.3431 2.68201C16.8429 4.18231 16 6.21714 16 8.33887V40.3389C16 42.4606 16.8429 44.4954 18.3431 45.9957C19.8434 47.496 21.8783 48.3389 24 48.3389H48V72.3389H8C5.87827 72.3389 3.84344 73.1817 2.34315 74.682C0.842854 76.1823 0 78.2171 0 80.3389V248.339C0 250.461 0.842854 252.495 2.34315 253.996C3.84344 255.496 5.87827 256.339 8 256.339H488C490.122 256.339 492.157 255.496 493.657 253.996C495.157 252.495 496 250.461 496 248.339V80.3389C496 78.2171 495.157 76.1823 493.657 74.682C492.157 73.1817 490.122 72.3389 488 72.3389ZM416 32.3389V16.3389H464V32.3389H416ZM32 32.3389V16.3389H80V32.3389H32ZM480 240.339H16V88.3389H480V240.339Z" fill="#126099"/>
<path d="M253.983 172.659C254.676 172.659 255.25 172.886 255.703 173.339C256.183 173.766 256.423 174.326 256.423 175.019C256.423 175.686 256.183 176.246 255.703 176.699C255.25 177.126 254.676 177.339 253.983 177.339H240.983C240.29 177.339 239.703 177.112 239.223 176.659C238.77 176.179 238.543 175.592 238.543 174.899V151.779C238.543 151.086 238.783 150.512 239.263 150.059C239.743 149.579 240.356 149.339 241.103 149.339C241.77 149.339 242.343 149.579 242.823 150.059C243.303 150.512 243.543 151.086 243.543 151.779V172.659H253.983ZM297.573 163.339C297.573 165.979 296.987 168.406 295.813 170.619C294.64 172.806 293.013 174.539 290.933 175.819C288.88 177.099 286.56 177.739 283.973 177.739C281.387 177.739 279.053 177.099 276.973 175.819C274.92 174.539 273.307 172.806 272.133 170.619C270.987 168.406 270.413 165.979 270.413 163.339C270.413 160.699 270.987 158.286 272.133 156.099C273.307 153.886 274.92 152.139 276.973 150.859C279.053 149.579 281.387 148.939 283.973 148.939C286.56 148.939 288.88 149.579 290.933 150.859C293.013 152.139 294.64 153.886 295.813 156.099C296.987 158.286 297.573 160.699 297.573 163.339ZM292.373 163.339C292.373 161.552 292.013 159.939 291.293 158.499C290.573 157.032 289.573 155.872 288.293 155.019C287.013 154.166 285.573 153.739 283.973 153.739C282.347 153.739 280.893 154.166 279.613 155.019C278.36 155.846 277.373 156.992 276.653 158.459C275.96 159.926 275.613 161.552 275.613 163.339C275.613 165.126 275.96 166.752 276.653 168.219C277.373 169.686 278.36 170.846 279.613 171.699C280.893 172.526 282.347 172.939 283.973 172.939C285.573 172.939 287.013 172.512 288.293 171.659C289.573 170.806 290.573 169.659 291.293 168.219C292.013 166.752 292.373 165.126 292.373 163.339ZM334.005 162.219C334.698 162.219 335.272 162.459 335.725 162.939C336.178 163.392 336.405 163.966 336.405 164.659V173.139C336.405 174.072 335.992 174.792 335.165 175.299C332.552 176.926 329.685 177.739 326.565 177.739C323.925 177.739 321.485 177.099 319.245 175.819C317.005 174.512 315.232 172.766 313.925 170.579C312.618 168.366 311.965 165.952 311.965 163.339C311.965 160.726 312.618 158.326 313.925 156.139C315.232 153.926 317.005 152.179 319.245 150.899C321.485 149.592 323.925 148.939 326.565 148.939C329.205 148.939 331.498 149.472 333.445 150.539C333.845 150.752 334.138 151.032 334.325 151.379C334.538 151.726 334.645 152.099 334.645 152.499C334.645 153.166 334.418 153.752 333.965 154.259C333.538 154.739 333.005 154.979 332.365 154.979C331.965 154.979 331.525 154.872 331.045 154.659C329.605 154.046 328.112 153.739 326.565 153.739C324.858 153.739 323.285 154.179 321.845 155.059C320.405 155.912 319.258 157.072 318.405 158.539C317.578 160.006 317.165 161.606 317.165 163.339C317.165 165.072 317.578 166.672 318.405 168.139C319.258 169.606 320.405 170.779 321.845 171.659C323.285 172.512 324.858 172.939 326.565 172.939C327.312 172.939 328.112 172.872 328.965 172.739C329.818 172.606 330.565 172.432 331.205 172.219V167.019H327.445C326.752 167.019 326.165 166.792 325.685 166.339C325.232 165.886 325.005 165.312 325.005 164.619C325.005 163.926 325.232 163.352 325.685 162.899C326.165 162.446 326.752 162.219 327.445 162.219H334.005ZM379.827 174.899C379.827 175.592 379.574 176.179 379.067 176.659C378.561 177.112 377.974 177.339 377.307 177.339C376.587 177.339 375.987 177.112 375.507 176.659C375.054 176.179 374.827 175.592 374.827 174.899V151.779C374.827 151.086 375.067 150.512 375.547 150.059C376.027 149.579 376.641 149.339 377.387 149.339C378.054 149.339 378.627 149.579 379.107 150.059C379.587 150.512 379.827 151.086 379.827 151.779V174.899ZM418.283 149.339C418.923 149.339 419.443 149.552 419.843 149.979C420.243 150.406 420.443 150.939 420.443 151.579V174.899C420.443 175.592 420.203 176.179 419.723 176.659C419.27 177.112 418.696 177.339 418.003 177.339C417.63 177.339 417.256 177.286 416.883 177.179C416.536 177.046 416.283 176.872 416.123 176.659L401.443 158.019V175.099C401.443 175.739 401.23 176.272 400.803 176.699C400.403 177.126 399.87 177.339 399.203 177.339C398.563 177.339 398.043 177.126 397.643 176.699C397.243 176.272 397.043 175.739 397.043 175.099V151.779C397.043 151.086 397.27 150.512 397.723 150.059C398.203 149.579 398.79 149.339 399.483 149.339C399.883 149.339 400.27 149.419 400.643 149.579C401.043 149.739 401.336 149.952 401.523 150.219L416.083 168.779V151.579C416.083 150.939 416.283 150.406 416.683 149.979C417.11 149.552 417.643 149.339 418.283 149.339Z" fill="white"/>
</svg>
