<svg width="250" height="54" viewBox="0 0 279 54" fill="none" xmlns="http://www.w3.org/2000/svg">
<path d="M129.638 25.036C129.854 25.036 130.022 25.108 130.142 25.252C130.286 25.396 130.358 25.564 130.358 25.756V42.28C130.358 42.472 130.286 42.64 130.142 42.784C129.998 42.928 129.83 43 129.638 43C129.422 43 129.242 42.928 129.098 42.784C128.978 42.64 128.918 42.472 128.918 42.28V37.168L129.494 36.7C129.494 37.468 129.302 38.248 128.918 39.04C128.534 39.832 128.006 40.552 127.334 41.2C126.662 41.848 125.87 42.376 124.958 42.784C124.046 43.168 123.062 43.36 122.006 43.36C120.398 43.36 118.958 42.94 117.686 42.1C116.438 41.26 115.454 40.12 114.734 38.68C114.014 37.24 113.654 35.62 113.654 33.82C113.654 31.996 114.014 30.388 114.734 28.996C115.478 27.58 116.474 26.476 117.722 25.684C118.994 24.868 120.422 24.46 122.006 24.46C123.038 24.46 124.01 24.652 124.922 25.036C125.834 25.396 126.626 25.912 127.298 26.584C127.994 27.256 128.534 28.048 128.918 28.96C129.302 29.848 129.494 30.82 129.494 31.876L128.918 30.976V25.756C128.918 25.564 128.978 25.396 129.098 25.252C129.242 25.108 129.422 25.036 129.638 25.036ZM122.078 41.992C123.422 41.992 124.622 41.644 125.678 40.948C126.734 40.228 127.562 39.256 128.162 38.032C128.762 36.784 129.062 35.38 129.062 33.82C129.062 32.332 128.762 30.988 128.162 29.788C127.562 28.564 126.734 27.604 125.678 26.908C124.622 26.188 123.422 25.828 122.078 25.828C120.758 25.828 119.57 26.176 118.514 26.872C117.458 27.544 116.618 28.48 115.994 29.68C115.394 30.88 115.094 32.26 115.094 33.82C115.094 35.38 115.394 36.784 115.994 38.032C116.594 39.256 117.422 40.228 118.478 40.948C119.534 41.644 120.734 41.992 122.078 41.992ZM140.284 42.28C140.284 42.472 140.212 42.64 140.068 42.784C139.924 42.928 139.756 43 139.564 43C139.348 43 139.168 42.928 139.024 42.784C138.904 42.64 138.844 42.472 138.844 42.28V25.18C138.844 24.988 138.916 24.82 139.06 24.676C139.204 24.532 139.372 24.46 139.564 24.46C139.78 24.46 139.948 24.532 140.068 24.676C140.212 24.82 140.284 24.988 140.284 25.18V42.28ZM139.564 22.012C139.18 22.012 138.868 21.904 138.628 21.688C138.412 21.472 138.304 21.196 138.304 20.86V20.572C138.304 20.236 138.424 19.96 138.664 19.744C138.904 19.528 139.216 19.42 139.6 19.42C139.936 19.42 140.212 19.528 140.428 19.744C140.668 19.96 140.788 20.236 140.788 20.572V20.86C140.788 21.196 140.668 21.472 140.428 21.688C140.212 21.904 139.924 22.012 139.564 22.012ZM149.502 43C149.286 43 149.106 42.928 148.962 42.784C148.842 42.64 148.782 42.472 148.782 42.28V25.756C148.782 25.564 148.854 25.396 148.998 25.252C149.142 25.108 149.31 25.036 149.502 25.036C149.718 25.036 149.886 25.108 150.006 25.252C150.15 25.396 150.222 25.564 150.222 25.756V31.84L149.61 32.776C149.61 31.84 149.766 30.892 150.078 29.932C150.414 28.972 150.894 28.084 151.518 27.268C152.142 26.428 152.898 25.756 153.786 25.252C154.698 24.724 155.742 24.46 156.918 24.46C157.254 24.46 157.614 24.508 157.998 24.604C158.382 24.7 158.574 24.928 158.574 25.288C158.574 25.504 158.514 25.684 158.394 25.828C158.274 25.972 158.118 26.044 157.926 26.044C157.782 26.044 157.602 25.996 157.386 25.9C157.194 25.78 156.906 25.72 156.522 25.72C155.754 25.72 154.998 25.948 154.254 26.404C153.51 26.86 152.826 27.472 152.202 28.24C151.602 28.984 151.122 29.8 150.762 30.688C150.402 31.576 150.222 32.44 150.222 33.28V42.28C150.222 42.472 150.15 42.64 150.006 42.784C149.862 42.928 149.694 43 149.502 43ZM174.528 17.8C175.896 17.8 177.084 18.088 178.092 18.664C179.124 19.24 179.916 20.044 180.468 21.076C181.044 22.108 181.332 23.308 181.332 24.676C181.332 26.02 181.044 27.232 180.468 28.312C179.916 29.392 179.124 30.244 178.092 30.868C177.084 31.492 175.896 31.804 174.528 31.804H166.536L166.68 31.552V42.28C166.68 42.472 166.596 42.64 166.428 42.784C166.284 42.928 166.116 43 165.924 43C165.684 43 165.492 42.928 165.348 42.784C165.228 42.64 165.168 42.472 165.168 42.28V18.52C165.168 18.328 165.24 18.16 165.384 18.016C165.528 17.872 165.696 17.8 165.888 17.8H174.528ZM174.528 30.364C175.632 30.364 176.568 30.124 177.336 29.644C178.128 29.14 178.74 28.456 179.172 27.592C179.604 26.728 179.82 25.756 179.82 24.676C179.82 23.572 179.604 22.624 179.172 21.832C178.74 21.016 178.128 20.38 177.336 19.924C176.568 19.468 175.632 19.24 174.528 19.24H166.572L166.68 19.06V30.472L166.536 30.364H174.528ZM203 25.036C203.216 25.036 203.384 25.108 203.504 25.252C203.648 25.396 203.72 25.564 203.72 25.756V42.28C203.72 42.472 203.648 42.64 203.504 42.784C203.36 42.928 203.192 43 203 43C202.784 43 202.604 42.928 202.46 42.784C202.34 42.64 202.28 42.472 202.28 42.28V37.168L202.856 36.7C202.856 37.468 202.664 38.248 202.28 39.04C201.896 39.832 201.368 40.552 200.696 41.2C200.024 41.848 199.232 42.376 198.32 42.784C197.408 43.168 196.424 43.36 195.368 43.36C193.76 43.36 192.32 42.94 191.048 42.1C189.8 41.26 188.816 40.12 188.096 38.68C187.376 37.24 187.016 35.62 187.016 33.82C187.016 31.996 187.376 30.388 188.096 28.996C188.84 27.58 189.836 26.476 191.084 25.684C192.356 24.868 193.784 24.46 195.368 24.46C196.4 24.46 197.372 24.652 198.284 25.036C199.196 25.396 199.988 25.912 200.66 26.584C201.356 27.256 201.896 28.048 202.28 28.96C202.664 29.848 202.856 30.82 202.856 31.876L202.28 30.976V25.756C202.28 25.564 202.34 25.396 202.46 25.252C202.604 25.108 202.784 25.036 203 25.036ZM195.44 41.992C196.784 41.992 197.984 41.644 199.04 40.948C200.096 40.228 200.924 39.256 201.524 38.032C202.124 36.784 202.424 35.38 202.424 33.82C202.424 32.332 202.124 30.988 201.524 29.788C200.924 28.564 200.096 27.604 199.04 26.908C197.984 26.188 196.784 25.828 195.44 25.828C194.12 25.828 192.932 26.176 191.876 26.872C190.82 27.544 189.98 28.48 189.356 29.68C188.756 30.88 188.456 32.26 188.456 33.82C188.456 35.38 188.756 36.784 189.356 38.032C189.956 39.256 190.784 40.228 191.84 40.948C192.896 41.644 194.096 41.992 195.44 41.992ZM220.018 24.46C221.098 24.46 222.106 24.58 223.042 24.82C224.002 25.06 224.77 25.384 225.346 25.792C225.946 26.176 226.246 26.584 226.246 27.016C226.246 27.184 226.174 27.352 226.03 27.52C225.91 27.664 225.754 27.736 225.562 27.736C225.298 27.736 225.082 27.664 224.914 27.52C224.77 27.376 224.614 27.208 224.446 27.016C224.278 26.8 224.014 26.608 223.654 26.44C223.318 26.272 222.838 26.128 222.214 26.008C221.614 25.888 220.87 25.828 219.982 25.828C218.59 25.828 217.318 26.188 216.166 26.908C215.014 27.628 214.09 28.6 213.394 29.824C212.722 31.024 212.386 32.38 212.386 33.892C212.386 35.428 212.698 36.808 213.322 38.032C213.97 39.256 214.858 40.228 215.986 40.948C217.138 41.644 218.47 41.992 219.982 41.992C221.062 41.992 221.878 41.896 222.43 41.704C223.006 41.488 223.498 41.26 223.906 41.02C224.41 40.732 224.758 40.456 224.95 40.192C225.142 39.928 225.37 39.796 225.634 39.796C225.826 39.796 225.97 39.856 226.066 39.976C226.186 40.096 226.246 40.252 226.246 40.444C226.246 40.732 225.982 41.116 225.454 41.596C224.926 42.052 224.182 42.46 223.222 42.82C222.286 43.18 221.17 43.36 219.874 43.36C218.122 43.36 216.574 42.952 215.23 42.136C213.886 41.296 212.83 40.168 212.062 38.752C211.318 37.312 210.946 35.692 210.946 33.892C210.946 32.212 211.318 30.664 212.062 29.248C212.83 27.808 213.886 26.656 215.23 25.792C216.598 24.904 218.194 24.46 220.018 24.46ZM234.083 43C233.867 43 233.687 42.928 233.543 42.784C233.423 42.64 233.363 42.472 233.363 42.28V17.08C233.363 16.888 233.423 16.72 233.543 16.576C233.687 16.432 233.867 16.36 234.083 16.36C234.299 16.36 234.467 16.432 234.587 16.576C234.731 16.72 234.803 16.888 234.803 17.08V42.28C234.803 42.472 234.731 42.64 234.587 42.784C234.467 42.928 234.299 43 234.083 43ZM246.575 24.82C246.767 24.82 246.935 24.892 247.079 25.036C247.223 25.18 247.295 25.36 247.295 25.576C247.295 25.792 247.211 25.972 247.043 26.116L234.551 36.52L234.479 34.792L246.107 25.036C246.251 24.892 246.407 24.82 246.575 24.82ZM246.791 43C246.599 43 246.419 42.916 246.251 42.748L237.539 33.46L238.619 32.524L247.295 41.74C247.439 41.884 247.511 42.064 247.511 42.28C247.511 42.52 247.415 42.7 247.223 42.82C247.031 42.94 246.887 43 246.791 43Z" fill="black"/>
<path d="M40.8235 51.3542C39.6126 51.3542 38.6309 50.3726 38.6309 49.1616V45.1012H43.0161V49.1616C43.0161 50.3726 42.0344 51.3542 40.8235 51.3542Z" fill="#4A4A4A"/>
<path d="M62.7498 51.3542C61.5389 51.3542 60.5571 50.3726 60.5571 49.1616V45.1012H64.9424V49.1616C64.9424 50.3726 63.9608 51.3542 62.7498 51.3542Z" fill="#4A4A4A"/>
<path d="M43.0454 4.81177H47.4011V17.4332H43.0454V4.81177Z" fill="#4A4A4A"/>
<path d="M56.1719 4.81177H60.5276V17.4332H56.1719V4.81177Z" fill="#4A4A4A"/>
<path d="M60.3407 5.77523H43.2322C41.6936 5.77523 40.4463 4.52796 40.4463 2.98929V2.78594C40.4463 1.24728 41.6936 0 43.2322 0H60.3408C61.8795 0 63.1268 1.24728 63.1268 2.78594V2.98929C63.1267 4.52796 61.8794 5.77523 60.3407 5.77523Z" fill="#F5A131"/>
<path d="M32.3623 19.9905C32.3623 15.1757 36.2655 11.2725 41.0803 11.2725H62.4923C67.3071 11.2725 71.2103 15.1757 71.2103 19.9905V43.1723C71.2103 45.752 69.119 47.8433 66.5393 47.8433H37.0333C34.4536 47.8433 32.3623 45.752 32.3623 43.1723V19.9905Z" fill="#F5A131"/>
<path d="M40.0552 47.2512C37.6828 43.0957 37.9446 37.6485 37.7659 33.007C37.5435 27.2318 38.1816 13.0509 38.2784 11.7352C34.8387 12.9024 32.3623 16.1561 32.3623 19.9905V43.1724C32.3623 45.7521 34.4536 47.8434 37.0333 47.8434H40.4089C40.2882 47.6477 40.1693 47.4509 40.0552 47.2512Z" fill="#F5A131"/>
<path d="M25.1327 28.7879H21.8649C19.6834 28.7879 17.9147 27.0192 17.9147 24.8377V22.5819H13.3934C11.2119 22.5819 9.44321 20.8132 9.44321 18.6317V16.376H5.0914C3.0284 16.376 1.18589 14.8676 0.990664 12.8138C0.766299 10.458 2.6127 8.47559 4.9224 8.47559H25.1332C30.7424 8.47559 35.2894 13.0226 35.2894 18.6317C35.2884 24.2409 30.7414 28.7879 25.1327 28.7879Z" fill="#B2E6E5"/>
<path d="M22.1955 24.8377V24.7226C22.1955 23.5406 21.2373 22.5819 20.0548 22.5819H17.9141V24.8377C17.9141 27.0192 19.6828 28.7879 21.8642 28.7879H25.1321C25.3385 28.7879 25.543 28.7796 25.746 28.7675C23.7519 28.5674 22.1955 26.8842 22.1955 24.8377Z" fill="#B2E6E5"/>
<path d="M5.27108 12.8143C5.04671 10.458 6.89311 8.47656 9.20281 8.47656H4.92142C2.6122 8.47656 0.765318 10.4585 0.989683 12.8143C1.1854 14.8681 3.02742 16.3764 5.09042 16.3764H9.37181C7.30882 16.3764 5.46679 14.8681 5.27108 12.8143Z" fill="#B2E6E5"/>
<path d="M13.7243 18.6318V18.5167C13.7243 17.3346 12.7661 16.376 11.5836 16.376H9.44287V18.6318C9.44287 20.8133 11.2116 22.582 13.3931 22.582H17.6744C15.4925 22.582 13.7243 20.8133 13.7243 18.6318Z" fill="#B2E6E5"/>
<path d="M25.1317 29.7592H21.8638C19.1501 29.7592 16.9423 27.5514 16.9423 24.8377V23.5532H13.3923C10.6786 23.5532 8.47086 21.3455 8.47086 18.6317V17.3472H5.09033C2.48585 17.3472 0.259677 15.3964 0.0221996 12.9055C-0.109409 11.52 0.348549 10.1389 1.27903 9.11562C2.21 8.09189 3.53725 7.50427 4.92084 7.50427H25.1317C31.2672 7.50427 36.2591 12.4962 36.2591 18.6317C36.2591 24.7673 31.2677 29.7592 25.1317 29.7592ZM4.92133 9.44683C4.08408 9.44683 3.28084 9.80231 2.71652 10.4225C2.14493 11.0509 1.8754 11.8677 1.9565 12.7215C2.09976 14.226 3.47606 15.4046 5.09033 15.4046H9.44214C9.97828 15.4046 10.4134 15.8398 10.4134 16.3759V18.6317C10.4134 20.2741 11.7494 21.6106 13.3923 21.6106H17.9136C18.4498 21.6106 18.8849 22.0458 18.8849 22.5819V24.8377C18.8849 26.4801 20.2209 27.8166 21.8638 27.8166H25.1317C30.1959 27.8166 34.3166 23.6964 34.3166 18.6317C34.3166 13.567 30.1964 9.44683 25.1317 9.44683H4.92133Z" fill="#4A4A4A"/>
<path d="M13.9167 17.3472H9.44247C8.90632 17.3472 8.47119 16.9121 8.47119 16.3759C8.47119 15.8398 8.90632 15.4047 9.44247 15.4047H13.9167C14.4528 15.4047 14.8879 15.8398 14.8879 16.3759C14.8879 16.9121 14.4528 17.3472 13.9167 17.3472Z" fill="#4A4A4A"/>
<path d="M22.4298 23.5533H17.9557C17.4195 23.5533 16.9844 23.1181 16.9844 22.582C16.9844 22.0459 17.4195 21.6107 17.9557 21.6107H22.4298C22.966 21.6107 23.4011 22.0459 23.4011 22.582C23.4011 23.1181 22.9665 23.5533 22.4298 23.5533Z" fill="#4A4A4A"/>
<path d="M78.6793 28.8944H81.962C84.1533 28.8944 85.9301 27.1178 85.9301 24.9267V22.6609H90.4719C92.6632 22.6609 94.44 20.8844 94.44 18.6932V16.4274H98.8115C100.884 16.4274 102.735 14.9124 102.931 12.8495C103.156 10.4832 101.301 8.49207 98.9813 8.49207H78.6788C73.0442 8.49207 68.4766 13.0592 68.4766 18.6932C68.4775 24.3272 73.0452 28.8944 78.6793 28.8944Z" fill="#B2E6E5"/>
<path d="M81.7059 24.8641V24.7467C81.7059 23.5407 82.6819 22.5626 83.8853 22.5626H86.0646V24.8641C86.0646 27.0898 84.264 28.8944 82.0431 28.8944H78.7162C78.5061 28.8944 78.298 28.886 78.0913 28.8736C80.1213 28.6694 81.7059 26.9521 81.7059 24.8641Z" fill="#B2E6E5"/>
<path d="M98.6284 12.8701C98.8539 10.4919 96.9983 8.49207 94.6772 8.49207H98.9798C101.3 8.49207 103.157 10.4924 102.931 12.8701C102.734 14.943 100.883 16.4654 98.81 16.4654H94.5073C96.5806 16.4654 98.4317 14.943 98.6284 12.8701Z" fill="#B2E6E5"/>
<path d="M90.2381 18.6817V18.5686C90.2381 17.4073 91.1935 16.4655 92.3726 16.4655H94.5071V18.6817C94.5071 20.825 92.7435 22.5627 90.5684 22.5627H86.2993C88.475 22.5627 90.2381 20.825 90.2381 18.6817Z" fill="#B2E6E5"/>
<path d="M82.1108 29.8325H78.856C72.7449 29.8325 67.7729 24.8358 67.7729 18.6933C67.7729 12.5507 72.7444 7.55408 78.856 7.55408H98.9862C100.364 7.55408 101.686 8.14183 102.613 9.16713C103.54 10.1914 103.996 11.5745 103.865 12.9611C103.629 15.4545 101.412 17.4074 98.8174 17.4074H95.4503V18.6933C95.4503 21.4099 93.2514 23.6199 90.5485 23.6199H87.0126V24.9058C87.0122 27.6224 84.8133 29.8325 82.1108 29.8325ZM78.856 9.49868C73.812 9.49868 69.7078 13.6232 69.7078 18.6933C69.7078 23.7629 73.8115 27.8879 78.856 27.8879H82.1108C83.7467 27.8879 85.0778 26.5504 85.0778 24.9058V22.6476C85.0778 22.1109 85.5112 21.6753 86.0452 21.6753H90.5485C92.1844 21.6753 93.5155 20.3379 93.5155 18.6933V16.4351C93.5155 15.8984 93.9489 15.4628 94.4829 15.4628H98.8174C100.425 15.4628 101.796 14.2829 101.939 12.7768C102.019 11.9217 101.751 11.1044 101.182 10.4754C100.62 9.85503 99.8201 9.49868 98.9857 9.49868H78.856Z" fill="#4A4A4A"/>
<path d="M94.4513 17.4035H89.8728C89.3242 17.4035 88.8789 16.9833 88.8789 16.4655C88.8789 15.9477 89.3242 15.5275 89.8728 15.5275H94.4513C94.9999 15.5275 95.4452 15.9477 95.4452 16.4655C95.4452 16.9833 95.0004 17.4035 94.4513 17.4035Z" fill="#4A4A4A"/>
<path d="M85.8099 23.5007H81.3949C80.8659 23.5007 80.4365 23.0805 80.4365 22.5627C80.4365 22.0449 80.8659 21.6246 81.3949 21.6246H85.8099C86.3389 21.6246 86.7683 22.0449 86.7683 22.5627C86.7683 23.0805 86.3389 23.5007 85.8099 23.5007Z" fill="#4A4A4A"/>
</svg>
