<svg width="60%" viewBox="0 0 1031 1031" fill="none" xmlns="http://www.w3.org/2000/svg">
<path d="M995.451 906.569V284.414L871.019 0H799.916V906.569H995.451Z" fill="#F8D387"/>
<path d="M799.916 460.466V906.569H995.451V329.687C936.347 381.741 870.594 425.718 799.916 460.466Z" fill="#F8C762"/>
<path d="M35.5532 888.793V284.414L159.984 0H231.088V888.793H35.5532Z" fill="#F8D387"/>
<path d="M35.5532 483.086V888.793H231.088V423.557C168.437 450.911 102.818 470.888 35.5532 483.086Z" fill="#F8C762"/>
<path d="M871.018 622.155H995.449V657.707H871.018V622.155Z" fill="#F1A531"/>
<path d="M871.018 515.5H995.449V551.052H871.018V515.5Z" fill="#F1A531"/>
<path d="M888.792 408.845H995.447V444.397H888.792V408.845Z" fill="#F1A531"/>
<path d="M799.916 327.325L949 178.241L933.699 143.269L799.916 277.052V327.325Z" fill="#F1B355"/>
<path d="M862.2 340.086L799.916 375.678V416.62L879.839 370.95L995.451 304.885V284.414L988.285 268.036L986.631 268.983L862.2 340.086Z" fill="#F1B355"/>
<path d="M871.018 728.81H995.449V764.361H871.018V728.81Z" fill="#F1A531"/>
<path d="M817.69 355.517H888.794L906.57 853.241L817.69 924.344V355.517Z" fill="#E37C55"/>
<path d="M817.69 618.939V924.344L906.57 853.241L895.109 532.32C871.209 562.842 845.348 591.776 817.69 618.939Z" fill="#E36333"/>
<path d="M764.363 284.414H835.466V888.793H764.363V284.414Z" fill="#F09C57"/>
<path d="M764.363 577.307V888.793H835.466V481.981C813.913 515.303 790.159 547.149 764.363 577.307Z" fill="#F08833"/>
<path d="M82.0024 178.241L231.086 327.325V277.052L97.303 143.269L82.0024 178.241Z" fill="#F1B355"/>
<path d="M151.165 370.95L231.088 416.62V375.678L168.803 340.086L44.3723 268.983L42.7191 268.036L35.5532 284.414V304.885L151.165 370.95Z" fill="#F1B355"/>
<path d="M35.5532 728.81H159.984V764.361H35.5532V728.81Z" fill="#F1A531"/>
<path d="M35.5532 622.155H159.984V657.707H35.5532V622.155Z" fill="#F1A531"/>
<path d="M35.5532 515.5H159.984V551.052H35.5532V515.5Z" fill="#F1A531"/>
<path d="M35.5532 408.845H159.984V444.397H35.5532V408.845Z" fill="#F1B355"/>
<path d="M231.084 355.517H142.205L124.429 853.241L231.084 906.568V355.517Z" fill="#E37C55"/>
<path d="M131.895 644.173L124.429 853.241L231.084 906.569V517.533C201.902 562.647 168.704 605.033 131.895 644.173Z" fill="#E36333"/>
<path d="M195.535 284.414H266.639V906.569H195.535V284.414Z" fill="#F09C57"/>
<path d="M195.535 629.71V906.569H266.639V466.51C248.493 523.166 224.671 577.843 195.535 629.71Z" fill="#F08833"/>
<path d="M497.726 444.396H533.277V515.499H497.726V444.396Z" fill="#F1B355"/>
<path d="M479.947 426.621H551.05V462.172H479.947V426.621Z" fill="#F8D387"/>
<path d="M408.845 888.793V776.674C408.845 762.545 413.079 748.74 421 737.04C428.921 725.34 440.166 716.282 453.285 711.035C466.403 705.787 477.648 696.729 485.57 685.029C493.491 673.329 497.724 659.524 497.725 645.395V604.379H533.276V645.395C533.276 659.524 537.51 673.329 545.431 685.029C553.352 696.729 564.597 705.787 577.716 711.035C590.834 716.282 602.08 725.34 610.001 737.04C617.922 748.74 622.155 762.545 622.156 776.674V888.793H408.845Z" fill="#F8D387"/>
<path d="M479.947 515.5V497.725H551.05V515.5C551.05 524.929 547.305 533.972 540.637 540.639C533.97 547.307 524.927 551.052 515.499 551.052C506.07 551.052 497.027 547.307 490.36 540.639C483.692 533.972 479.947 524.929 479.947 515.5Z" fill="#F09C57"/>
<path d="M497.726 728.811H533.277V906.569H497.726V728.811Z" fill="#F1B355"/>
<path d="M444.398 764.361H479.95V799.913H444.398V764.361Z" fill="#F1B355"/>
<path d="M551.053 764.361H586.604V799.913H551.053V764.361Z" fill="#F1B355"/>
<path d="M444.398 817.69H479.95V924.345H444.398V817.69Z" fill="#F1B355"/>
<path d="M551.053 817.69H586.604V924.345H551.053V817.69Z" fill="#F1B355"/>
<path d="M373.292 888.793H657.706V995.448H373.292V888.793Z" fill="#E37C55"/>
<path d="M462.172 551.051V568.827C462.172 582.97 467.791 596.534 477.792 606.535C487.793 616.536 501.357 622.154 515.5 622.154C529.643 622.154 543.207 616.536 553.208 606.535C563.209 596.534 568.828 582.97 568.828 568.827V551.051H462.172Z" fill="#E37C55"/>
<path d="M373.292 968.82V995.448H657.706V888.793H636.597C553.553 929.073 464.705 956.077 373.292 968.82Z" fill="#E36333"/>
<path d="M728.81 853.241H1031V995.448H728.81V853.241Z" fill="#E6E6E6"/>
<path d="M0 853.241H302.19V995.448H0V853.241Z" fill="#E6E6E6"/>
<path d="M17.7759 942.121C11.8143 942.121 5.93269 941.79 0 941.677V995.449H302.19V895.357C210.568 926.343 114.496 942.14 17.7759 942.121Z" fill="#CCCCCC"/>
<path d="M746.585 935.557C740.624 935.557 734.742 935.226 728.81 935.112V988.884H1031V888.793C939.378 919.78 843.305 935.577 746.585 935.557Z" fill="#CCCCCC"/>
<path d="M0 959.896H1031V1031H0V959.896Z" fill="#B3B3B3"/>
<path d="M586.602 478.936H609.29V497.842H586.602V478.936Z" fill="#BFBFBD"/>
<path d="M916.497 603.373V550.779H843.729V804.124H916.497L927.208 779.76C934.664 762.805 936.441 743.989 932.283 725.992C922.973 685.646 916.497 644.728 916.497 603.373Z" fill="#8F4D2E"/>
<path d="M690.806 691.576C681.721 704.016 675.988 718.696 674.186 734.136C672.384 749.576 674.576 765.232 680.541 779.525L690.806 804.124H760.543V671.113L740.618 630.186L690.806 691.576Z" fill="#8F4D2E"/>
<path d="M905.49 784.272H843.477V702.03H760.794V784.272H698.781C685.075 784.272 671.931 789.688 662.239 799.328C652.548 808.967 647.104 822.041 647.104 835.674V1031H957.168V835.674C957.168 822.041 951.723 808.967 942.032 799.328C932.34 789.688 919.196 784.272 905.49 784.272Z" fill="#FEC9A3"/>
<path d="M843.728 744.946V702.03H760.541V744.946C773.451 751.536 787.693 754.968 802.134 754.968C816.576 754.968 830.818 751.536 843.728 744.946Z" fill="#FEB784"/>
<path d="M892.885 568.425V640.111C892.885 664.556 883.324 687.999 866.305 705.284C849.286 722.569 826.203 732.28 802.135 732.28C778.066 732.28 754.983 722.569 737.964 705.284C720.945 687.999 711.384 664.556 711.384 640.111V568.425C711.384 546.696 719.883 525.857 735.011 510.493C750.139 495.129 770.657 486.497 792.051 486.497H812.218C822.814 486.49 833.306 488.604 843.097 492.718C852.887 496.833 861.783 502.867 869.275 510.477C876.767 518.086 882.708 527.12 886.76 537.064C890.811 547.007 892.892 557.664 892.885 568.425Z" fill="#FEC9A3"/>
<path d="M802.136 683.124C794.116 683.115 786.427 679.925 780.756 674.254C775.085 668.583 771.895 660.894 771.886 652.874H792.053C792.053 655.548 793.115 658.113 795.006 660.004C796.897 661.895 799.462 662.957 802.136 662.957C804.811 662.957 807.375 661.895 809.266 660.004C811.157 658.113 812.22 655.548 812.22 652.874H832.387C832.378 660.894 829.188 668.583 823.517 674.254C817.846 679.925 810.157 683.115 802.136 683.124Z" fill="#F7A468"/>
<path d="M711.384 599.936H873.979V630.186H711.384V599.936Z" fill="#FEC093"/>
<path d="M892.884 568.697V640.265C892.874 654.005 889.842 667.569 884.01 679.962C878.178 692.355 869.693 703.263 859.178 711.887C848.663 720.51 836.385 726.631 823.243 729.799C810.1 732.967 796.428 733.103 783.227 730.197C802.235 724.778 818.979 713.183 830.906 697.182C842.834 681.181 849.291 661.65 849.292 641.568V539.329C849.319 521.969 844.496 504.958 835.386 490.279C851.996 495.303 866.566 505.65 876.927 519.781C887.288 533.911 892.885 551.069 892.884 568.697Z" fill="#FEC093"/>
<path d="M791.823 456.249C764.473 456.249 738.242 467.161 718.903 486.585C699.563 506.008 688.698 532.353 688.698 559.822V694.468L721.364 655.099C733.574 640.382 740.261 621.832 740.261 602.676C740.26 586.837 744.834 571.338 753.428 558.057C762.021 544.776 774.265 534.283 788.677 527.85L833.073 508.035L836.571 516.816C847.604 544.52 868.377 567.193 894.949 580.537H915.574V559.822C915.574 532.353 904.709 506.008 885.369 486.585C866.029 467.161 839.799 456.249 812.448 456.249H791.823Z" fill="#95573A"/>
<path d="M892.885 581.031H903.283C911.557 581.031 919.491 584.218 925.342 589.891C931.192 595.564 934.479 603.258 934.479 611.281C934.479 619.304 931.192 626.998 925.342 632.671C919.491 638.344 911.557 641.531 903.283 641.531H892.885V581.031Z" fill="#FEB784"/>
<path d="M957.168 1031V836.422C957.168 822.842 951.723 809.818 942.032 800.215C932.34 790.613 919.196 785.218 905.49 785.218L898.547 795.538C887.966 811.265 873.629 824.16 856.811 833.078C839.992 841.997 821.211 846.663 802.136 846.663C783.06 846.663 764.279 841.997 747.46 833.078C730.642 824.16 716.305 811.265 705.724 795.538L698.781 785.218C685.075 785.218 671.931 790.613 662.239 800.215C652.548 809.818 647.104 822.842 647.104 836.422V1031" fill="#E0E0DE"/>
<path d="M957.168 836.422V1031H647.104V836.422C647.104 822.842 652.548 809.818 662.239 800.215C671.931 790.613 685.075 785.218 698.781 785.218H740.123L802.136 949.073L864.148 785.218H905.49C912.278 785.214 918.999 786.536 925.271 789.108C931.542 791.68 937.24 795.452 942.04 800.207C946.839 804.963 950.646 810.609 953.241 816.823C955.837 823.037 957.171 829.697 957.168 836.422Z" fill="#DF4D60"/>
<path d="M957.168 836.817V1031H730.292C813.304 982.698 899.329 912.05 950.511 811.688C954.886 819.35 957.18 828.01 957.168 836.817Z" fill="#DF4D60"/>
<path d="M843.73 460.474C836.347 458.36 828.744 456.944 821.042 456.249V512.012L832.386 507.417L836.233 516.181C838.049 520.25 840.105 524.226 842.393 528.093H843.73V460.474Z" fill="#82462A"/>
<path d="M749.195 959.156H771.883V978.063H749.195V959.156Z" fill="#DF4D60"/>
<path d="M915.176 902.437L897.202 912.895C911.86 937.346 908.068 969.765 887.768 993.553C886.189 995.406 885.323 997.747 885.323 1000.17V1031H906.189V1003.8C930 973.629 933.707 933.361 915.176 902.437Z" fill="#AF3848"/>
<path d="M708.149 912.895L691.809 902.437C674.963 933.361 678.332 973.629 699.979 1003.8V1031H718.948V1000.17C718.948 997.747 718.161 995.406 716.725 993.553C698.271 969.765 694.824 937.343 708.149 912.895Z" fill="#AF3848"/>
<path d="M790.789 940.25H813.477V1031H790.789V940.25Z" fill="#AF3848"/>
<path d="M915.574 537.981V558.342H688.698V537.981C688.664 508.88 700.121 480.912 720.637 460.015C741.154 439.118 769.112 426.938 798.578 426.061C799.764 426.01 800.95 425.998 802.136 425.998C817.037 425.981 831.796 428.866 845.567 434.488C859.337 440.11 871.849 448.358 882.386 458.76C892.923 469.162 901.279 481.513 906.973 495.107C912.668 508.701 915.591 523.271 915.574 537.981Z" fill="#DF4D60"/>
<path d="M915.571 537.981V558.342H861.495C845.518 491.444 826.752 452.505 798.352 426.061C799.54 426.01 800.728 425.998 801.916 425.998C816.842 425.998 831.621 428.894 845.41 434.522C859.199 440.15 871.728 448.398 882.282 458.797C892.836 469.195 901.208 481.54 906.919 495.127C912.631 508.713 915.571 523.275 915.571 537.981Z" fill="#DF4D60"/>
<path d="M915.573 537.546V558.343H852.448C849.633 542.732 846.766 528.967 843.729 516.749H913.666C914.936 523.61 915.574 530.571 915.573 537.546Z" fill="#DF4D60"/>
<path d="M776.906 407.102L782.827 377.411C783.655 373.357 787.222 370.445 791.36 370.446H811.908C816.046 370.445 819.613 373.357 820.441 377.411L826.362 407.102H776.906Z" fill="#F9EAB0"/>
<path d="M868.851 440.361L865.02 446.804C823.235 437.865 780.032 437.865 738.247 446.804L734.416 440.361C731.708 435.805 731.216 430.267 733.079 425.305C734.941 420.344 738.957 416.498 743.993 414.849C754.723 411.333 765.734 408.741 776.905 407.1C793.3 404.661 809.966 404.661 826.361 407.1C837.532 408.741 848.543 411.333 859.273 414.849C864.31 416.498 868.325 420.344 870.188 425.305C872.05 430.267 871.558 435.805 868.851 440.361Z" fill="#F0C419"/>
</svg>
