<svg width="496" height="257" viewBox="0 0 496 257" fill="none" xmlns="http://www.w3.org/2000/svg">
<path d="M8 80.3389V248.339H488V80.3389H8ZM175.52 172.819C174.41 173.938 173.089 174.825 171.633 175.429C170.177 176.034 168.616 176.343 167.04 176.339H142.48L125.68 224.339H109.68L113.68 176.339H81.04L72.4 192.339H49.28L54.24 178.019L57.2 166.179L54.24 154.339L49.28 136.339H72.4L81.04 152.339H113.68L109.68 104.339H125.68L142.48 152.339H166.56C169.249 152.278 171.883 153.097 174.064 154.671C176.244 156.245 177.851 158.488 178.64 161.059C179.206 163.12 179.216 165.294 178.667 167.36C178.119 169.426 177.033 171.31 175.52 172.819Z" fill="#73D1CC"/>
<path d="M24 8.33887H88V40.3389H24V8.33887Z" fill="#73D1CC"/>
<path d="M408 8.33887H472V40.3389H408V8.33887Z" fill="#73D1CC"/>
<path d="M41.7041 189.731C41.2885 190.936 41.1669 192.224 41.3497 193.485C41.5324 194.747 42.0141 195.947 42.7546 196.985C43.4951 198.023 44.4729 198.869 45.6067 199.452C46.7404 200.036 47.9971 200.34 49.2721 200.339H72.4241C73.8673 200.339 75.2836 199.949 76.523 199.209C77.7623 198.47 78.7786 197.409 79.4641 196.139L85.8641 184.339H105.064L101.792 223.675C101.7 224.78 101.839 225.892 102.199 226.941C102.56 227.989 103.135 228.951 103.887 229.766C104.639 230.581 105.553 231.23 106.569 231.673C107.586 232.116 108.683 232.343 109.792 232.339H125.792C127.451 232.339 129.07 231.823 130.423 230.863C131.776 229.902 132.797 228.545 133.344 226.979L148.176 184.339H167.08C169.702 184.352 172.301 183.843 174.724 182.84C177.147 181.837 179.346 180.361 181.192 178.499C183.704 176.008 185.508 172.895 186.42 169.478C187.333 166.06 187.32 162.462 186.384 159.051C185.165 154.749 182.556 150.973 178.963 148.311C175.371 145.649 170.998 144.253 166.528 144.339H148.176L133.256 101.699C132.709 100.133 131.688 98.7754 130.335 97.8151C128.982 96.8547 127.363 96.3389 125.704 96.3389H109.704C108.595 96.3351 107.498 96.5618 106.481 97.0047C105.465 97.4476 104.551 98.097 103.799 98.9117C103.047 99.7264 102.472 100.689 102.111 101.737C101.751 102.786 101.612 103.898 101.704 105.003L105.008 144.339H85.8081L79.4481 132.539C78.7626 131.269 77.7463 130.208 76.507 129.469C75.2676 128.729 73.8513 128.339 72.4081 128.339H49.2721C48.0411 128.338 46.8265 128.622 45.7229 129.167C44.6194 129.713 43.6566 130.506 42.9096 131.484C42.1626 132.463 41.6514 133.601 41.416 134.809C41.1806 136.017 41.2271 137.264 41.5521 138.451L46.4401 156.339L48.9201 166.251L46.6401 175.435L41.7041 189.731ZM67.6481 144.339L74.0001 156.139C74.6863 157.41 75.7038 158.472 76.9447 159.211C78.1856 159.951 79.6036 160.34 81.0481 160.339H113.704C114.813 160.343 115.911 160.116 116.927 159.673C117.944 159.23 118.857 158.581 119.609 157.766C120.362 156.951 120.936 155.989 121.297 154.941C121.657 153.892 121.796 152.78 121.704 151.675L118.4 112.339H120L134.92 154.979C135.468 156.545 136.489 157.902 137.842 158.863C139.195 159.823 140.813 160.339 142.472 160.339H166.472C167.399 160.288 168.318 160.527 169.104 161.021C169.889 161.515 170.501 162.241 170.856 163.099C171.081 163.81 171.103 164.569 170.919 165.291C170.735 166.013 170.353 166.67 169.816 167.187C169.452 167.557 169.017 167.849 168.537 168.047C168.058 168.245 167.543 168.344 167.024 168.339H142.504C140.845 168.339 139.227 168.855 137.874 169.815C136.521 170.775 135.5 172.133 134.952 173.699L120 216.339H118.4L121.68 177.003C121.772 175.898 121.633 174.786 121.273 173.737C120.912 172.689 120.338 171.726 119.585 170.912C118.833 170.097 117.92 169.448 116.903 169.005C115.887 168.562 114.789 168.335 113.68 168.339H81.0481C79.6036 168.337 78.1856 168.727 76.9447 169.467C75.7038 170.206 74.6863 171.268 74.0001 172.539L67.6481 184.339H60.4481L64.9041 168.147C65.2161 166.872 65.2161 165.541 64.9041 164.267L59.7521 144.339H67.6481Z" fill="#126099"/>
<path d="M488 72.3389H448V48.3389H472C474.122 48.3389 476.157 47.496 477.657 45.9957C479.157 44.4954 480 42.4606 480 40.3389V8.33887C480 6.21714 479.157 4.18231 477.657 2.68201C476.157 1.18172 474.122 0.338867 472 0.338867H408C405.878 0.338867 403.843 1.18172 402.343 2.68201C400.843 4.18231 400 6.21714 400 8.33887V40.3389C400 42.4606 400.843 44.4954 402.343 45.9957C403.843 47.496 405.878 48.3389 408 48.3389H432V72.3389H64V48.3389H88C90.1217 48.3389 92.1566 47.496 93.6569 45.9957C95.1571 44.4954 96 42.4606 96 40.3389V8.33887C96 6.21714 95.1571 4.18231 93.6569 2.68201C92.1566 1.18172 90.1217 0.338867 88 0.338867H24C21.8783 0.338867 19.8434 1.18172 18.3431 2.68201C16.8429 4.18231 16 6.21714 16 8.33887V40.3389C16 42.4606 16.8429 44.4954 18.3431 45.9957C19.8434 47.496 21.8783 48.3389 24 48.3389H48V72.3389H8C5.87827 72.3389 3.84344 73.1817 2.34315 74.682C0.842854 76.1823 0 78.2171 0 80.3389V248.339C0 250.461 0.842854 252.495 2.34315 253.996C3.84344 255.496 5.87827 256.339 8 256.339H488C490.122 256.339 492.157 255.496 493.657 253.996C495.157 252.495 496 250.461 496 248.339V80.3389C496 78.2171 495.157 76.1823 493.657 74.682C492.157 73.1817 490.122 72.3389 488 72.3389ZM416 32.3389V16.3389H464V32.3389H416ZM32 32.3389V16.3389H80V32.3389H32ZM480 240.339H16V88.3389H480V240.339Z" fill="#126099"/>
<path d="M230.068 177.739C228.148 177.739 226.441 177.499 224.948 177.019C223.455 176.539 222.055 175.726 220.748 174.579C220.028 173.939 219.668 173.232 219.668 172.459C219.668 171.846 219.895 171.312 220.348 170.859C220.801 170.379 221.348 170.139 221.988 170.139C222.495 170.139 222.948 170.299 223.348 170.619C224.415 171.499 225.455 172.139 226.468 172.539C227.481 172.939 228.681 173.139 230.068 173.139C231.561 173.139 232.841 172.806 233.908 172.139C235.001 171.472 235.548 170.646 235.548 169.659C235.548 168.459 235.015 167.526 233.948 166.859C232.881 166.166 231.188 165.646 228.868 165.299C223.028 164.446 220.108 161.726 220.108 157.139C220.108 155.459 220.548 154.006 221.428 152.779C222.308 151.526 223.508 150.579 225.028 149.939C226.548 149.272 228.241 148.939 230.108 148.939C231.788 148.939 233.361 149.192 234.828 149.699C236.321 150.206 237.561 150.872 238.548 151.699C239.321 152.312 239.708 153.019 239.708 153.819C239.708 154.432 239.481 154.979 239.028 155.459C238.575 155.912 238.041 156.139 237.428 156.139C237.028 156.139 236.668 156.019 236.348 155.779C235.655 155.219 234.681 154.712 233.428 154.259C232.201 153.779 231.095 153.539 230.108 153.539C228.428 153.539 227.121 153.859 226.188 154.499C225.281 155.112 224.828 155.926 224.828 156.939C224.828 158.086 225.295 158.952 226.228 159.539C227.188 160.126 228.681 160.606 230.708 160.979C233.001 161.379 234.828 161.899 236.188 162.539C237.575 163.152 238.615 164.006 239.308 165.099C240.001 166.166 240.348 167.592 240.348 169.379C240.348 171.059 239.868 172.539 238.908 173.819C237.975 175.072 236.721 176.046 235.148 176.739C233.575 177.406 231.881 177.739 230.068 177.739ZM261.135 174.899C261.135 175.592 260.882 176.179 260.375 176.659C259.868 177.112 259.282 177.339 258.615 177.339C257.895 177.339 257.295 177.112 256.815 176.659C256.362 176.179 256.135 175.592 256.135 174.899V151.779C256.135 151.086 256.375 150.512 256.855 150.059C257.335 149.579 257.948 149.339 258.695 149.339C259.362 149.339 259.935 149.579 260.415 150.059C260.895 150.512 261.135 151.086 261.135 151.779V174.899ZM298.991 162.219C299.684 162.219 300.257 162.459 300.711 162.939C301.164 163.392 301.391 163.966 301.391 164.659V173.139C301.391 174.072 300.977 174.792 300.151 175.299C297.537 176.926 294.671 177.739 291.551 177.739C288.911 177.739 286.471 177.099 284.231 175.819C281.991 174.512 280.217 172.766 278.911 170.579C277.604 168.366 276.951 165.952 276.951 163.339C276.951 160.726 277.604 158.326 278.911 156.139C280.217 153.926 281.991 152.179 284.231 150.899C286.471 149.592 288.911 148.939 291.551 148.939C294.191 148.939 296.484 149.472 298.431 150.539C298.831 150.752 299.124 151.032 299.311 151.379C299.524 151.726 299.631 152.099 299.631 152.499C299.631 153.166 299.404 153.752 298.951 154.259C298.524 154.739 297.991 154.979 297.351 154.979C296.951 154.979 296.511 154.872 296.031 154.659C294.591 154.046 293.097 153.739 291.551 153.739C289.844 153.739 288.271 154.179 286.831 155.059C285.391 155.912 284.244 157.072 283.391 158.539C282.564 160.006 282.151 161.606 282.151 163.339C282.151 165.072 282.564 166.672 283.391 168.139C284.244 169.606 285.391 170.779 286.831 171.659C288.271 172.512 289.844 172.939 291.551 172.939C292.297 172.939 293.097 172.872 293.951 172.739C294.804 172.606 295.551 172.432 296.191 172.219V167.019H292.431C291.737 167.019 291.151 166.792 290.671 166.339C290.217 165.886 289.991 165.312 289.991 164.619C289.991 163.926 290.217 163.352 290.671 162.899C291.151 162.446 291.737 162.219 292.431 162.219H298.991ZM338.642 149.339C339.282 149.339 339.802 149.552 340.202 149.979C340.602 150.406 340.802 150.939 340.802 151.579V174.899C340.802 175.592 340.562 176.179 340.082 176.659C339.629 177.112 339.056 177.339 338.362 177.339C337.989 177.339 337.616 177.286 337.242 177.179C336.896 177.046 336.642 176.872 336.482 176.659L321.802 158.019V175.099C321.802 175.739 321.589 176.272 321.162 176.699C320.762 177.126 320.229 177.339 319.562 177.339C318.922 177.339 318.402 177.126 318.002 176.699C317.602 176.272 317.402 175.739 317.402 175.099V151.779C317.402 151.086 317.629 150.512 318.082 150.059C318.562 149.579 319.149 149.339 319.842 149.339C320.242 149.339 320.629 149.419 321.002 149.579C321.402 149.739 321.696 149.952 321.882 150.219L336.442 168.779V151.579C336.442 150.939 336.642 150.406 337.042 149.979C337.469 149.552 338.002 149.339 338.642 149.339ZM400.307 149.299C401.001 149.299 401.561 149.526 401.987 149.979C402.414 150.432 402.627 151.019 402.627 151.739V166.219C402.627 168.432 402.161 170.392 401.227 172.099C400.294 173.806 398.987 175.139 397.307 176.099C395.627 177.059 393.707 177.539 391.547 177.539C389.387 177.539 387.454 177.059 385.747 176.099C384.067 175.139 382.761 173.806 381.827 172.099C380.894 170.392 380.427 168.432 380.427 166.219V151.739C380.427 151.046 380.667 150.472 381.147 150.019C381.627 149.539 382.241 149.299 382.987 149.299C383.627 149.299 384.187 149.539 384.667 150.019C385.147 150.472 385.387 151.046 385.387 151.739V166.219C385.387 167.499 385.667 168.646 386.227 169.659C386.787 170.646 387.534 171.406 388.467 171.939C389.427 172.472 390.454 172.739 391.547 172.739C392.694 172.739 393.761 172.472 394.747 171.939C395.761 171.406 396.561 170.646 397.147 169.659C397.761 168.646 398.067 167.499 398.067 166.219V151.739C398.067 151.019 398.267 150.432 398.667 149.979C399.067 149.526 399.614 149.299 400.307 149.299ZM431.39 149.339C432.75 149.339 434.044 149.752 435.27 150.579C436.497 151.379 437.484 152.472 438.23 153.859C438.977 155.219 439.35 156.712 439.35 158.339C439.35 159.939 438.977 161.432 438.23 162.819C437.484 164.206 436.497 165.312 435.27 166.139C434.044 166.939 432.75 167.339 431.39 167.339H424.43V174.899C424.43 175.619 424.217 176.206 423.79 176.659C423.364 177.112 422.804 177.339 422.11 177.339C421.444 177.339 420.897 177.112 420.47 176.659C420.044 176.179 419.83 175.592 419.83 174.899V151.779C419.83 151.086 420.057 150.512 420.51 150.059C420.99 149.579 421.577 149.339 422.27 149.339H431.39ZM431.39 162.779C431.897 162.779 432.39 162.566 432.87 162.139C433.377 161.712 433.777 161.166 434.07 160.499C434.39 159.806 434.55 159.086 434.55 158.339C434.55 157.592 434.39 156.886 434.07 156.219C433.777 155.526 433.377 154.979 432.87 154.579C432.39 154.152 431.897 153.939 431.39 153.939H424.43V162.779H431.39Z" fill="white"/>
</svg>
