<svg width="60%" viewBox="0 0 517 517" fill="none" xmlns="http://www.w3.org/2000/svg">
<path d="M106.966 26.7416H89.1382V124.793H106.966V26.7416Z" fill="#75462E"/>
<path d="M178.276 26.7416H160.449V124.793H178.276V26.7416Z" fill="#75462E"/>
<path d="M106.966 26.7416H89.1382V53.4832H106.966V26.7416Z" fill="#5E3825"/>
<path d="M178.276 26.7416H160.449V53.4832H178.276V26.7416Z" fill="#5E3825"/>
<path d="M80.2239 0H187.189C197.039 0 205.017 7.97816 205.017 17.8274C205.017 27.6767 197.039 35.6548 187.189 35.6548H80.2239C70.3746 35.6548 62.3965 27.6767 62.3965 17.8274C62.3965 7.97816 70.3746 0 80.2239 0Z" fill="#73D1CC"/>
<path d="M35.6548 115.88H231.758C251.449 115.88 267.413 131.844 267.413 151.534V436.776C267.413 456.467 251.449 472.431 231.758 472.431H35.6548C15.9644 472.431 0 456.467 0 436.776V151.534C0 131.844 15.9644 115.88 35.6548 115.88Z" fill="#73D1CC"/>
<path d="M240.922 117.217C202.941 315.138 74.0562 401.29 0 435.144V436.775C0 456.466 15.9644 472.43 35.6548 472.43H231.758C251.449 472.43 267.413 456.466 267.413 436.775V151.535C267.387 135.41 256.512 121.325 240.922 117.217Z" fill="#73D1CC"/>
<path d="M31.1986 517C43.506 517 53.4831 507.023 53.4831 494.715C53.4831 482.408 43.506 472.431 31.1986 472.431C18.8912 472.431 8.91406 482.408 8.91406 494.715C8.91406 507.023 18.8912 517 31.1986 517Z" fill="#73D1CC"/>
<path d="M115.879 160.449H98.0513V418.949H115.879V160.449Z" fill="#126099"/>
<path d="M62.3963 160.449H44.5688V418.949H62.3963V160.449Z" fill="#126099"/>
<path d="M169.362 160.449H151.535V418.949H169.362V160.449Z" fill="#126099"/>
<path d="M222.844 160.449H205.017V418.949H222.844V160.449Z" fill="#126099"/>
<path d="M236.216 517C248.523 517 258.5 507.023 258.5 494.715C258.5 482.408 248.523 472.431 236.216 472.431C223.908 472.431 213.931 482.408 213.931 494.715C213.931 507.023 223.908 517 236.216 517Z" fill="#73D1CC"/>
<path d="M517 258.5V436.776C517 456.467 501.036 472.431 481.345 472.431H169.362C149.671 472.431 133.707 456.467 133.707 436.776V258.5C133.707 238.81 149.671 222.845 169.362 222.845H481.345C501.036 222.845 517 238.81 517 258.5Z" fill="#F93057"/>
<path d="M401.119 222.845V187.19C401.119 167.5 385.155 151.536 365.465 151.536H285.241C265.55 151.536 249.586 167.5 249.586 187.19V222.845H285.241V187.19H365.465V222.845H401.119Z" fill="#75462E"/>
<path d="M164.904 517C177.211 517 187.188 507.023 187.188 494.716C187.188 482.409 177.211 472.431 164.904 472.431C152.596 472.431 142.619 482.409 142.619 494.716C142.619 507.023 152.596 517 164.904 517Z" fill="#F93057"/>
<path d="M485.8 517C498.108 517 508.085 507.023 508.085 494.715C508.085 482.408 498.108 472.431 485.8 472.431C473.493 472.431 463.516 482.408 463.516 494.715C463.516 507.023 473.493 517 485.8 517Z" fill="#F93057"/>
<path d="M502.514 229.976C438.201 357.978 258.392 438.772 168.469 472.342C168.772 472.342 169.058 472.431 169.361 472.431H481.344C501.035 472.431 516.999 456.466 516.999 436.776V258.5C516.973 247.233 511.597 236.644 502.514 229.976Z" fill="#E22753"/>
<path d="M213.931 222.845H178.276V472.431H213.931V222.845Z" fill="#75462E"/>
<path d="M472.431 222.845H436.776V472.431H472.431V222.845Z" fill="#75462E"/>
<path d="M423.87 296.314C418.016 298.921 415.383 305.779 417.99 311.633L414.844 304.567C412.237 298.713 405.379 296.08 399.525 298.687C393.671 301.293 391.038 308.151 393.645 314.005L390.499 306.939C387.892 301.085 381.034 298.453 375.18 301.059C369.326 303.665 366.693 310.524 369.3 316.378L353.569 281.046C350.963 275.192 344.104 272.559 338.25 275.166C332.396 277.772 329.764 284.63 332.37 290.484L371.697 378.813L341.701 377.469C338.702 377.335 335.713 377.901 332.97 379.121C327.467 381.571 324.993 388.018 327.443 393.521L327.461 393.563C328.636 396.216 330.818 398.291 333.526 399.33L399.56 424.678C413.43 429.994 428.843 429.582 442.41 423.533C465.825 413.108 476.356 385.674 465.931 362.258L439.189 302.195C436.582 296.341 429.724 293.708 423.87 296.314Z" fill="#FFCC80"/>
<path d="M369.341 306.961L386.991 346.603C387.86 348.554 386.982 350.84 385.031 351.709L369.3 316.378C367.949 313.381 367.964 309.945 369.341 306.961Z" fill="#FFB74D"/>
<path d="M393.687 304.589L408.19 337.165C409.059 339.116 408.182 341.402 406.23 342.271L393.646 314.005C392.295 311.009 392.31 307.573 393.687 304.589Z" fill="#FFB74D"/>
<path d="M418.031 302.216L429.388 327.726C430.257 329.677 429.38 331.963 427.428 332.832L417.99 311.633C416.639 308.637 416.654 305.201 418.031 302.216Z" fill="#FFB74D"/>
</svg>
