<svg width="100%" height="543" viewBox="0 0 667 543" fill="none" xmlns="http://www.w3.org/2000/svg">
<path d="M666.61 64.2828C641.82 75.1846 615.406 82.4107 587.866 85.9193C616.197 68.961 637.821 42.3122 647.986 10.1917C621.572 25.9805 592.408 37.1329 561.327 43.3565C536.246 16.5824 500.499 0 461.502 0C385.842 0 324.931 61.5678 324.931 137.045C324.931 147.905 325.847 158.347 328.097 168.288C214.482 162.733 113.949 108.141 46.4127 24.978C34.622 45.4867 27.706 68.961 27.706 94.2314C27.706 141.681 52.0789 183.743 88.4091 208.094C66.4527 207.677 44.9128 201.286 26.6644 191.22C26.6644 191.637 26.6644 192.18 26.6644 192.723C26.6644 259.303 74.0353 314.606 136.155 327.345C125.031 330.395 112.907 331.857 100.325 331.857C91.5755 331.857 82.7429 331.355 74.452 329.517C92.1588 383.776 142.405 423.665 202.149 424.96C155.653 461.425 96.6168 483.395 32.7055 483.395C21.4982 483.395 10.7491 482.894 0 481.516C60.5365 520.653 132.28 543 209.649 543C461.127 543 598.616 334.154 598.616 153.126C598.616 147.069 598.407 141.222 598.116 135.416C625.238 116.118 648.028 92.0176 666.61 64.2828Z" fill="#03A9F4"/>
</svg>
