<svg width="60%" height="200px" viewBox="0 0 677 982" fill="none" xmlns="http://www.w3.org/2000/svg">
<path d="M507.75 727.774H440.05V676.999C558.525 676.999 558.525 558.524 558.525 558.524V483.378C565.239 471.184 569.927 457.979 572.403 444.281C574.262 435.369 575.282 426.303 575.45 417.201V225.61C575.444 209.031 567.36 193.494 553.786 183.975C525.438 166.778 494.264 154.744 461.714 148.432L469.161 135.908C474.424 127.053 475.38 116.286 471.76 106.642C468.139 96.9982 460.334 89.521 450.543 86.3174C429.686 79.4824 408.283 74.443 386.567 71.2542L375.058 13.54C373.449 5.65859 366.515 -0.00164137 358.471 3.57037e-07H318.528C310.485 -0.00164137 303.551 5.65859 301.942 13.54L290.433 71.2542C268.717 74.443 247.314 79.4824 226.456 86.3174C216.666 89.521 208.861 96.9982 205.24 106.642C201.62 116.286 202.576 127.053 207.839 135.908L215.286 148.432C182.736 154.744 151.562 166.778 123.214 183.975C109.64 193.494 101.556 209.031 101.55 225.61V417.201C101.718 426.303 102.738 435.369 104.596 444.281C107.073 457.979 111.761 471.184 118.475 483.378V558.524C118.475 558.524 118.475 676.999 236.95 676.999V727.774H169.25C75.7758 727.774 0 803.55 0 897.024V947.799C0.0557645 966.471 15.1783 981.593 33.85 981.649H643.15C661.822 981.593 676.944 966.471 677 947.799V897.024C677 803.55 601.224 727.774 507.75 727.774ZM507.75 423.125V407.215C507.919 407.046 507.919 407.046 508.088 407.046C508.258 417.032 507.75 423.125 507.75 423.125ZM169.25 407.215V423.125C169.25 423.125 168.742 417.032 168.911 407.046C169.081 407.046 169.081 407.046 169.25 407.215Z" fill="#FF5364"/>
<path d="M290.433 71.2543L301.942 13.54C303.55 5.6586 310.484 -0.00164137 318.528 3.57038e-07H358.471C366.515 -0.00164137 373.449 5.6586 375.058 13.54L386.567 71.2543H290.433Z" fill="#F9EAB0"/>
<path d="M677 897.02V947.795C676.944 966.467 661.822 981.589 643.15 981.645H507.75C554.487 981.645 592.375 943.757 592.375 897.02V750.45C644.758 780.665 677.023 836.548 677 897.02Z" fill="#FF5364"/>
<path d="M389.274 913.257V981.634H287.724V913.257C288.204 913.501 288.717 913.672 289.247 913.765C303.126 916.642 321.574 880.422 338.499 880.422C355.424 880.422 373.872 916.642 387.751 913.765C388.281 913.672 388.795 913.501 389.274 913.257Z" fill="#FF5364"/>
<path d="M169.25 981.648H33.85C15.1783 981.592 0.0557767 966.469 1.22057e-05 947.798V897.023C-0.0229103 836.55 32.2423 780.667 84.625 750.452V897.023C84.625 919.467 93.5408 940.991 109.411 956.862C125.281 972.732 146.806 981.648 169.25 981.648Z" fill="#FF5364"/>
<path d="M524.166 763.318C521.797 778.382 485.07 783.628 477.792 800.384C471.36 814.94 490.316 851.159 478.638 864.022C468.483 875.193 436.495 854.375 421.262 862.499C409.076 868.93 404.845 907.858 389.274 913.274C388.795 913.518 388.281 913.69 387.751 913.782C373.872 916.659 355.424 880.439 338.499 880.439C321.574 880.439 303.126 916.659 289.247 913.782C288.717 913.69 288.204 913.518 287.724 913.274C272.153 907.858 267.922 868.93 255.736 862.499C240.503 854.375 208.515 875.193 198.36 864.022C186.682 851.159 205.638 814.94 199.206 800.553C191.929 783.798 155.371 778.551 152.832 763.488C149.447 743.008 165.018 737.931 175.511 727.776H236.949C236.949 727.776 236.949 812.401 338.499 812.401C440.049 812.401 440.049 727.776 440.049 727.776H501.487C511.98 737.931 527.551 742.839 524.166 763.318Z" fill="#F9EAB0"/>
<path d="M440.05 660.24V727.77C440.05 727.77 440.05 812.395 338.5 812.395C236.95 812.395 236.95 727.77 236.95 727.77V660.24C263.522 697.644 297.542 727.77 338.5 727.77C379.459 727.77 413.478 697.644 440.05 660.24Z" fill="#F9C795"/>
<path d="M572.404 444.287C569.927 457.985 565.24 471.189 558.525 483.383C553.302 493.423 546.437 502.518 538.215 510.294C527.842 520.321 515.591 528.201 502.165 533.481C502.504 532.635 502.673 531.789 503.011 530.943C506.132 521.437 507.732 511.498 507.75 501.493C507.75 501.493 508.258 417.037 508.089 407.051C522.754 390.951 545.738 385.39 566.141 393.004C579.665 399.266 575.298 429.545 572.404 444.287Z" fill="#FEC9A3"/>
<path d="M507.751 407.218V404.171C507.927 398.196 505.373 392.465 500.811 388.6C483.548 375.568 395.369 327.163 348.825 291.282C342.758 286.543 334.244 286.543 328.176 291.282C281.633 327.163 193.453 375.568 176.19 388.6C171.629 392.465 169.075 398.196 169.251 404.171V407.218C169.081 407.049 169.081 407.049 168.912 407.049C169.42 358.812 184.483 220.027 338.501 220.027C492.518 220.027 507.581 358.812 508.089 407.049C507.92 407.049 507.92 407.049 507.751 407.218Z" fill="#393F4A"/>
<path d="M507.749 404.166V501.485C507.731 511.49 506.132 521.429 503.01 530.935C502.672 531.781 502.486 532.627 502.164 533.473C490.994 565.32 477.415 596.269 461.544 626.053C455 637.828 447.824 649.241 440.049 660.242C413.477 697.646 379.458 727.772 338.499 727.772C297.541 727.772 263.522 697.646 236.949 660.242C229.115 649.28 221.937 637.864 215.455 626.053C199.584 596.269 186.005 565.32 174.835 533.473C174.513 532.61 174.327 531.781 173.988 530.935C170.867 521.429 169.268 511.49 169.249 501.485V404.166C169.073 398.191 171.627 392.46 176.189 388.595C193.452 375.563 281.631 327.158 328.175 291.277C334.242 286.538 342.756 286.538 348.824 291.277C395.367 327.158 483.547 375.563 500.81 388.595C505.372 392.46 507.925 398.191 507.749 404.166Z" fill="#FEC9A3"/>
<path d="M469.162 135.904L461.715 148.429C380.491 131.053 296.51 131.053 215.287 148.429L207.84 135.904C202.576 127.049 201.62 116.283 205.241 106.639C208.861 96.9948 216.667 89.5175 226.457 86.3139C247.314 79.4789 268.718 74.4395 290.434 71.2507C322.303 66.5095 354.698 66.5095 386.568 71.2507C408.283 74.4395 429.687 79.4789 450.544 86.3139C460.335 89.5175 468.14 96.9948 471.76 106.639C475.381 116.283 474.425 127.049 469.162 135.904Z" fill="#F0C419"/>
<path d="M174.835 533.481C161.409 528.201 149.157 520.321 138.785 510.294C130.562 502.518 123.698 493.423 118.475 483.383C111.76 471.189 107.073 457.985 104.596 444.287C101.702 429.545 97.3353 399.266 110.858 393.004C131.262 385.39 154.246 390.951 168.911 407.051C168.742 417.037 169.25 423.13 169.25 423.13V501.493C169.268 511.498 170.868 521.437 173.989 530.943C174.327 531.789 174.496 532.635 174.835 533.481Z" fill="#FEC9A3"/>
<path d="M236.949 660.242V676.998C118.474 676.998 118.474 558.523 118.474 558.523V483.376C123.697 493.415 130.562 502.511 138.784 510.287C149.157 520.314 161.408 528.194 174.834 533.474C185.748 565.421 199.336 596.391 215.454 626.054C221.937 637.865 229.115 649.281 236.949 660.242Z" fill="#393F4A"/>
<path d="M558.525 483.376V558.523C558.525 558.523 558.525 676.998 440.05 676.998V660.242C447.825 649.241 455 637.829 461.545 626.054C477.663 596.391 491.251 565.421 502.165 533.474C515.591 528.194 527.842 520.314 538.215 510.287C546.437 502.511 553.302 493.415 558.525 483.376Z" fill="#393F4A"/>
<path d="M338.5 605.934C328.088 605.922 318.105 601.978 310.742 594.966C303.38 587.954 299.238 578.447 299.227 568.53H325.409C325.409 571.837 326.788 575.008 329.243 577.346C331.698 579.684 335.028 580.998 338.5 580.998C341.972 580.998 345.302 579.684 347.757 577.346C350.212 575.008 351.591 571.837 351.591 568.53H377.774C377.762 578.447 373.621 587.954 366.258 594.967C358.895 601.979 348.913 605.923 338.5 605.934Z" fill="#F7A468"/>
</svg>
