<svg  width="60%" viewBox="0 0 753 793" fill="none" xmlns="http://www.w3.org/2000/svg">
<path d="M335.882 362.752V698.634C335.882 712.887 330.22 726.556 320.141 736.635C310.063 746.713 296.394 752.375 282.141 752.375H53.7411C46.6822 752.38 39.6916 750.994 33.169 748.295C26.6464 745.596 20.72 741.638 15.7286 736.647C10.7372 731.655 6.77888 725.729 4.08002 719.206C1.38115 712.684 -0.00528498 705.693 1.51388e-05 698.634V362.752C1.51388e-05 348.499 5.662 334.83 15.7404 324.752C25.8188 314.673 39.4881 309.011 53.7411 309.011H282.141C291.646 308.994 300.985 311.509 309.196 316.3C316.152 320.371 322.113 325.942 326.645 332.607C332.683 341.499 335.902 352.004 335.882 362.752Z" fill="#D6D6D4"/>
<path d="M335.882 362.752V698.634C335.882 712.887 330.22 726.556 320.141 736.635C310.063 746.713 296.394 752.375 282.141 752.375H53.7412C42.9392 752.361 32.3908 749.1 23.4661 743.014C14.5414 736.929 7.65275 728.3 3.69482 718.249C108.389 631.995 222.824 503.587 309.196 316.3C316.152 320.371 322.114 325.941 326.645 332.607C332.683 341.499 335.902 352.004 335.882 362.752Z" fill="#C7C7C5"/>
<path d="M80.6117 376.187C80.6117 368.767 74.5966 362.752 67.1765 362.752C59.7564 362.752 53.7412 368.767 53.7412 376.187V685.199C53.7412 692.619 59.7564 698.634 67.1765 698.634C74.5966 698.634 80.6117 692.619 80.6117 685.199V376.187Z" fill="#BFBFBD"/>
<path d="M147.788 376.187C147.788 368.767 141.773 362.752 134.353 362.752C126.933 362.752 120.917 368.767 120.917 376.187V685.199C120.917 692.619 126.933 698.634 134.353 698.634C141.773 698.634 147.788 692.619 147.788 685.199V376.187Z" fill="#BFBFBD"/>
<path d="M214.964 376.187C214.964 368.767 208.949 362.752 201.529 362.752C194.109 362.752 188.094 368.767 188.094 376.187V685.199C188.094 692.619 194.109 698.634 201.529 698.634C208.949 698.634 214.964 692.619 214.964 685.199V376.187Z" fill="#BFBFBD"/>
<path d="M282.141 376.187C282.141 368.767 276.125 362.752 268.705 362.752C261.285 362.752 255.27 368.767 255.27 376.187V685.199C255.27 692.619 261.285 698.634 268.705 698.634C276.125 698.634 282.141 692.619 282.141 685.199V376.187Z" fill="#BFBFBD"/>
<path d="M94.0467 792.681C123.727 792.681 147.788 768.62 147.788 738.94C147.788 709.259 123.727 685.199 94.0467 685.199C64.3664 685.199 40.3057 709.259 40.3057 738.94C40.3057 768.62 64.3664 792.681 94.0467 792.681Z" fill="#44546C"/>
<path d="M255.27 792.681C248.143 792.681 241.309 789.85 236.27 784.811C231.23 779.771 228.399 772.937 228.399 765.81V752.375H282.14V765.81C282.14 772.937 279.309 779.771 274.27 784.811C269.231 789.85 262.396 792.681 255.27 792.681Z" fill="#44546C"/>
<path d="M214.965 13.4353H107.482C92.6422 13.4353 80.6118 25.4657 80.6118 40.3058C80.6118 55.146 92.6422 67.1764 107.482 67.1764H214.965C229.805 67.1764 241.835 55.146 241.835 40.3058C241.835 25.4657 229.805 13.4353 214.965 13.4353Z" fill="#E0E0DE"/>
<path d="M107.482 67.1763H134.352V309.011H107.482V67.1763Z" fill="#C7C7C5"/>
<path d="M188.094 67.1763H214.964V309.011H188.094V67.1763Z" fill="#C7C7C5"/>
<path d="M107.482 67.1763H134.352V94.0468H107.482V67.1763Z" fill="#BFBFBD"/>
<path d="M188.094 67.1763H214.964V94.0468H188.094V67.1763Z" fill="#BFBFBD"/>
<path d="M618.023 230.952V161.223H523.976V497.105H618.023L631.866 464.803C641.503 442.325 643.799 417.378 638.426 393.519C626.393 340.028 618.023 285.78 618.023 230.952Z" fill="#8F4D2E"/>
<path d="M322.446 349.317C310.194 365.652 302.463 384.928 300.033 405.203C297.603 425.478 300.558 446.035 308.603 464.803L322.446 497.105H416.493V322.446L389.622 268.705L322.446 349.317Z" fill="#8F4D2E"/>
<path d="M604.587 470.234H523.976V362.752H416.494V470.234H335.882C318.066 470.234 300.979 477.312 288.381 489.91C275.783 502.508 268.706 519.594 268.706 537.411V792.681H671.764V537.411C671.764 519.594 664.686 502.508 652.088 489.91C639.49 477.312 622.404 470.234 604.587 470.234Z" fill="#FEC9A3"/>
<path d="M523.975 417.21V362.752H416.493V417.21C433.173 425.573 451.575 429.928 470.234 429.928C488.893 429.928 507.295 425.573 523.975 417.21Z" fill="#FEB784"/>
<path d="M591.152 188.094V282.141C591.152 314.21 578.412 344.966 555.736 367.642C533.059 390.319 502.304 403.058 470.234 403.058C438.165 403.058 407.409 390.319 384.733 367.642C362.056 344.966 349.317 314.21 349.317 282.141V188.094C349.317 159.588 360.641 132.249 380.798 112.092C400.955 91.9356 428.293 80.6116 456.799 80.6116H483.67C497.787 80.6019 511.768 83.3754 524.813 88.7734C537.857 94.1714 549.71 102.088 559.693 112.071C569.675 122.053 577.592 133.906 582.99 146.951C588.388 159.995 591.161 173.976 591.152 188.094Z" fill="#FEC9A3"/>
<path d="M470.235 335.882C459.548 335.87 449.303 331.619 441.747 324.063C434.191 316.507 429.941 306.262 429.929 295.576H456.799C456.799 299.139 458.215 302.557 460.734 305.076C463.254 307.596 466.671 309.011 470.235 309.011C473.798 309.011 477.215 307.596 479.735 305.076C482.254 302.557 483.67 299.139 483.67 295.576H510.54C510.529 306.262 506.279 316.507 498.722 324.064C491.166 331.62 480.921 335.87 470.235 335.882Z" fill="#F7A468"/>
<path d="M349.317 228.4H564.281V268.705H349.317V228.4Z" fill="#FEC093"/>
<path d="M591.152 188.094V282.141C591.139 300.196 587.086 318.021 579.289 334.306C571.492 350.592 560.149 364.926 546.092 376.259C532.035 387.591 515.62 395.633 498.051 399.797C480.482 403.961 462.204 404.139 444.556 400.321C469.966 393.199 492.351 377.963 508.296 356.935C524.242 335.908 532.874 310.243 532.876 283.854V149.501C532.911 126.688 526.464 104.335 514.285 85.0452C536.49 91.6466 555.969 105.244 569.82 123.813C583.671 142.382 591.153 164.928 591.152 188.094Z" fill="#FEC093"/>
<path d="M456.799 40.3059C421.166 40.3059 386.993 54.4609 361.797 79.6569C336.601 104.853 322.446 139.026 322.446 174.659V349.317L365.004 298.248C380.912 279.159 389.623 255.096 389.623 230.247C389.623 209.701 395.581 189.596 406.777 172.369C417.973 155.141 433.925 141.53 452.7 133.186L510.54 107.482L515.096 118.872C529.471 154.808 556.533 184.22 591.152 201.529H618.022V174.659C618.022 139.026 603.867 104.853 578.671 79.6569C553.475 54.4609 519.302 40.3059 483.67 40.3059H456.799Z" fill="#95573A"/>
<path d="M591.152 201.529H604.587C615.277 201.529 625.529 205.776 633.088 213.334C640.646 220.893 644.893 231.145 644.893 241.835C644.893 252.525 640.646 262.777 633.088 270.335C625.529 277.894 615.277 282.141 604.587 282.141H591.152V201.529Z" fill="#FEB784"/>
<path d="M671.764 792.681V537.411C671.764 519.594 664.686 502.508 652.088 489.91C639.49 477.312 622.404 470.234 604.587 470.234L595.562 483.774C581.807 504.406 563.171 521.323 541.308 533.023C519.445 544.724 495.032 550.846 470.235 550.846C445.438 550.846 421.024 544.724 399.161 533.023C377.298 521.323 358.662 504.406 344.907 483.774L335.882 470.234C318.066 470.234 300.979 477.312 288.381 489.91C275.783 502.508 268.706 519.594 268.706 537.411V792.681" fill="#E0E0DE"/>
<path d="M671.764 537.411V792.681H268.706V537.411C268.706 519.594 275.783 502.508 288.381 489.91C300.979 477.312 318.066 470.234 335.882 470.234H389.623L470.235 685.199L550.846 470.234H604.587C613.41 470.23 622.148 471.964 630.3 475.338C638.453 478.712 645.86 483.66 652.099 489.899C658.338 496.138 663.286 503.545 666.66 511.698C670.034 519.85 671.768 528.588 671.764 537.411Z" fill="#B2E6E5"/>
<path d="M671.763 537.411V792.681H375.852C484.123 729.182 596.324 636.311 663.081 504.377C668.787 514.45 671.779 525.833 671.763 537.411Z" fill="#B2E6E5"/>
<path d="M523.976 46.476C515.231 43.7286 506.226 41.8883 497.105 40.9844V113.454L510.54 107.482L515.097 118.872C517.247 124.16 519.682 129.328 522.392 134.353H523.976V46.476Z" fill="#82462A"/>
<path d="M616.16 624.622L593.014 638.293C611.889 670.255 607.007 712.633 580.865 743.729C578.832 746.152 577.717 749.213 577.716 752.375V792.681H604.587V757.124C635.25 717.685 640.022 665.046 616.16 624.622Z" fill="#B2E6E5"/>
<path d="M347.453 638.293L324.308 624.622C300.445 665.046 305.218 717.685 335.881 757.124V792.681H362.751V752.375C362.75 749.213 361.635 746.152 359.602 743.729C333.461 712.633 328.579 670.252 347.453 638.293Z" fill="#B2E6E5"/>
<path d="M456.799 671.763H483.67V792.681H456.799V671.763Z" fill="#73D1CC"/>
<path d="M685.199 107.482H255.27C218.17 107.482 188.094 137.558 188.094 174.659C188.094 211.759 218.17 241.835 255.27 241.835H685.199C722.299 241.835 752.375 211.759 752.375 174.659C752.375 137.558 722.299 107.482 685.199 107.482Z" fill="#B2E6E5"/>
<path d="M618.022 147.788V174.659H322.446V147.788C322.402 109.383 337.329 72.4725 364.058 44.8942C390.786 17.316 427.211 1.24159 465.599 0.0840648C467.144 0.0168885 468.689 9.56471e-05 470.234 9.56471e-05C489.648 -0.0220034 508.876 3.78556 526.816 11.2048C544.757 18.624 561.058 29.5091 574.785 43.2369C588.513 56.9647 599.398 73.2655 606.818 91.2059C614.237 109.146 618.044 128.374 618.022 147.788Z" fill="#B2E6E5"/>
<path d="M618.022 147.788V174.658H547.705C526.931 86.372 502.529 34.9821 465.599 0.0839691C467.144 0.0167928 468.689 0 470.234 0C489.642 0 508.86 3.82265 526.79 11.2497C544.721 18.6767 561.013 29.5627 574.736 43.2861C588.46 57.0095 599.346 73.3015 606.773 91.2319C614.2 109.162 618.022 128.38 618.022 147.788Z" fill="#B2E6E5"/>
<path d="M618.022 147.788V174.659H322.446V147.788C322.445 138.776 323.26 129.782 324.881 120.917H615.587C617.209 129.782 618.024 138.776 618.022 147.788Z" fill="#73D1CC"/>
<path d="M618.023 147.788V174.659H537.411C533.817 154.489 530.156 136.704 526.276 120.917H615.587C617.209 129.782 618.024 138.776 618.023 147.788Z" fill="#73D1CC"/>
</svg>
