<?xml version="1.0" standalone="no"?>
<!DOCTYPE svg PUBLIC "-//W3C//DTD SVG 20010904//EN"
 "http://www.w3.org/TR/2001/REC-SVG-20010904/DTD/svg10.dtd">
<svg version="1.0" xmlns="http://www.w3.org/2000/svg"
 width="1112.000000pt" height="1112.000000pt" viewBox="0 0 1112.000000 1112.000000"
 preserveAspectRatio="xMidYMid meet">
<metadata>
Created by potrace 1.11, written by Peter Selinger 2001-2013
</metadata>
<g transform="translate(0.000000,1112.000000) scale(0.100000,-0.100000)"
fill="#000000" stroke="none">
<path d="M4502 8279 c-72 -36 -127 -94 -153 -163 -26 -70 -21 -195 10 -256 45
-85 123 -143 222 -164 l26 -6 -1 -292 -1 -293 -145 -1 c-80 -1 -161 -5 -180
-8 -19 -3 -53 -9 -75 -12 -123 -19 -311 -113 -419 -208 l-29 -26 -19 30 c-10
17 -18 32 -18 35 0 8 -95 140 -125 174 -26 30 -101 104 -145 145 -29 26 -166
114 -225 144 -93 47 -166 76 -225 88 -19 4 -37 8 -40 9 -3 1 -25 5 -50 9 -25
5 -54 11 -65 14 -11 3 -551 6 -1200 7 -1270 2 -1234 3 -1345 -51 -112 -54
-196 -140 -250 -256 -40 -86 -50 -138 -46 -243 7 -180 105 -338 268 -428 111
-62 149 -69 388 -72 118 -2 222 -4 231 -4 13 -1 16 -18 17 -108 1 -174 46
-288 157 -399 78 -79 189 -135 295 -150 14 -2 122 -4 240 -4 l215 -1 1 -102
c0 -90 7 -149 18 -182 2 -5 7 -21 12 -34 9 -29 49 -106 66 -127 29 -35 105
-114 111 -114 3 0 25 -13 49 -29 24 -16 74 -39 112 -52 65 -22 84 -23 325 -23
326 0 400 9 571 65 77 25 273 124 289 146 9 12 68 52 82 55 9 2 12 -203 14
-892 1 -492 5 -908 9 -923 48 -201 229 -363 425 -384 31 -3 96 -6 145 -7 l89
-1 2 -96 c2 -78 7 -106 26 -144 72 -144 257 -175 371 -62 54 53 71 105 72 217
l1 85 938 2 c515 2 937 -1 938 -5 0 -4 2 -50 3 -102 2 -110 22 -158 83 -210
49 -41 98 -58 163 -54 61 3 104 22 149 65 53 50 70 101 72 212 l1 97 119 2
c66 0 125 1 132 2 24 1 152 48 168 62 8 8 20 14 25 14 16 0 108 93 141 141 38
57 71 141 79 204 4 28 7 449 7 937 0 629 3 886 10 881 14 -8 55 -43 79 -65 10
-10 23 -18 28 -18 6 0 10 -4 10 -8 0 -5 12 -15 28 -22 15 -8 34 -19 42 -26 15
-12 149 -80 185 -95 54 -22 144 -47 229 -65 87 -17 511 -25 620 -11 173 22
312 118 398 276 40 73 59 160 61 278 l3 104 234 3 c235 3 265 6 317 28 16 6
31 12 34 12 3 1 32 18 65 38 165 103 244 249 249 461 1 59 5 111 9 115 4 4 94
7 199 8 207 1 262 6 329 29 43 15 104 44 123 58 59 44 89 70 108 94 12 15 26
31 33 35 6 4 17 21 24 38 7 16 16 30 20 30 5 0 12 15 15 33 4 17 11 37 16 42
25 32 34 215 13 295 -38 148 -143 279 -275 344 -41 20 -83 38 -94 40 -11 2
-42 7 -70 11 -55 8 -2248 9 -2337 1 -31 -3 -72 -8 -90 -12 -18 -3 -37 -7 -43
-8 -5 -1 -16 -5 -22 -9 -7 -5 -13 -6 -13 -3 0 6 -94 -20 -125 -34 -11 -5 -45
-19 -75 -31 -30 -13 -57 -25 -60 -28 -3 -4 -26 -17 -52 -31 -27 -13 -48 -28
-48 -32 0 -5 -5 -8 -11 -8 -27 0 -279 -226 -279 -251 0 -3 -9 -17 -21 -30 -28
-32 -119 -186 -119 -202 0 -6 -17 6 -37 27 -70 72 -189 147 -308 196 -112 45
-211 61 -399 63 l-146 2 -1 40 c-1 46 -1 89 1 125 0 14 0 112 -1 218 0 106 2
196 5 200 4 3 19 8 34 10 96 12 203 114 229 217 10 42 9 130 -1 178 -16 70
-90 156 -164 190 -47 22 -47 22 -1033 24 l-986 3 -61 -31z m1506 -593 c4 -5 7
-517 3 -571 -1 -7 -151 -10 -458 -9 -252 0 -463 2 -469 2 -7 1 -10 96 -10 292
l-1 289 26 3 c47 5 903 0 909 -6z"/>
</g>
</svg>
