<svg version="1" xmlns="http://www.w3.org/2000/svg" width="1482.667" height="1482.667" viewBox="0 0 1112.000000 1112.000000"><path d="M450.2 284.1c-7.2 3.6-12.7 9.4-15.3 16.3-2.6 7-2.1 19.5 1 25.6 4.5 8.5 12.3 14.3 22.2 16.4l2.6.6-.1 29.2-.1 29.3-14.5.1c-8 .1-16.1.5-18 .8-1.9.3-5.3.9-7.5 1.2-12.3 1.9-31.1 11.3-41.9 20.8l-2.9 2.6-1.9-3c-1-1.7-1.8-3.2-1.8-3.5 0-.8-9.5-14-12.5-17.4-2.6-3-10.1-10.4-14.5-14.5-2.9-2.6-16.6-11.4-22.5-14.4-9.3-4.7-16.6-7.6-22.5-8.8-1.9-.4-3.7-.8-4-.9-.3-.1-2.5-.5-5-.9-2.5-.5-5.4-1.1-6.5-1.4-1.1-.3-55.1-.6-120-.7-127-.2-123.4-.3-134.5 5.1-11.2 5.4-19.6 14-25 25.6-4 8.6-5 13.8-4.6 24.3.7 18 10.5 33.8 26.8 42.8 11.1 6.2 14.9 6.9 38.8 7.2 11.8.2 22.2.4 23.1.4 1.3.1 1.6 1.8 1.7 10.8.1 17.4 4.6 28.8 15.7 39.9 7.8 7.9 18.9 13.5 29.5 15 1.4.2 12.2.4 24 .4l21.5.1.1 10.2c0 9 .7 14.9 1.8 18.2.2.5.7 2.1 1.2 3.4.9 2.9 4.9 10.6 6.6 12.7 2.9 3.5 10.5 11.4 11.1 11.4.3 0 2.5 1.3 4.9 2.9 2.4 1.6 7.4 3.9 11.2 5.2 6.5 2.2 8.4 2.3 32.5 2.3 32.6 0 40-.9 57.1-6.5 7.7-2.5 27.3-12.4 28.9-14.6.9-1.2 6.8-5.2 8.2-5.5.9-.2 1.2 20.3 1.4 89.2.1 49.2.5 90.8.9 92.3 4.8 20.1 22.9 36.3 42.5 38.4 3.1.3 9.6.6 14.5.7l8.9.1.2 9.6c.2 7.8.7 10.6 2.6 14.4 7.2 14.4 25.7 17.5 37.1 6.2 5.4-5.3 7.1-10.5 7.2-21.7l.1-8.5 93.8-.2c51.5-.2 93.7.1 93.8.5 0 .4.2 5 .3 10.2.2 11 2.2 15.8 8.3 21 4.9 4.1 9.8 5.8 16.3 5.4 6.1-.3 10.4-2.2 14.9-6.5 5.3-5 7-10.1 7.2-21.2l.1-9.7 11.9-.2c6.6 0 12.5-.1 13.2-.2 2.4-.1 15.2-4.8 16.8-6.2.8-.8 2-1.4 2.5-1.4 1.6 0 10.8-9.3 14.1-14.1 3.8-5.7 7.1-14.1 7.9-20.4.4-2.8.7-44.9.7-93.7 0-62.9.3-88.6 1-88.1 1.4.8 5.5 4.3 7.9 6.5 1 1 2.3 1.8 2.8 1.8.6 0 1 .4 1 .8 0 .5 1.2 1.5 2.8 2.2 1.5.8 3.4 1.9 4.2 2.6 1.5 1.2 14.9 8 18.5 9.5 5.4 2.2 14.4 4.7 22.9 6.5 8.7 1.7 51.1 2.5 62 1.1 17.3-2.2 31.2-11.8 39.8-27.6 4-7.3 5.9-16 6.1-27.8l.3-10.4 23.4-.3c23.5-.3 26.5-.6 31.7-2.8 1.6-.6 3.1-1.2 3.4-1.2.3-.1 3.2-1.8 6.5-3.8 16.5-10.3 24.4-24.9 24.9-46.1.1-5.9.5-11.1.9-11.5.4-.4 9.4-.7 19.9-.8 20.7-.1 26.2-.6 32.9-2.9 4.3-1.5 10.4-4.4 12.3-5.8 5.9-4.4 8.9-7 10.8-9.4 1.2-1.5 2.6-3.1 3.3-3.5.6-.4 1.7-2.1 2.4-3.8.7-1.6 1.6-3 2-3 .5 0 1.2-1.5 1.5-3.3.4-1.7 1.1-3.7 1.6-4.2 2.5-3.2 3.4-21.5 1.3-29.5-3.8-14.8-14.3-27.9-27.5-34.4-4.1-2-8.3-3.8-9.4-4-1.1-.2-4.2-.7-7-1.1-5.5-.8-224.8-.9-233.7-.1-3.1.3-7.2.8-9 1.2-1.8.3-3.7.7-4.3.8-.5.1-1.6.5-2.2.9-.7.5-1.3.6-1.3.3 0-.6-9.4 2-12.5 3.4-1.1.5-4.5 1.9-7.5 3.1-3 1.3-5.7 2.5-6 2.8-.3.4-2.6 1.7-5.2 3.1-2.7 1.3-4.8 2.8-4.8 3.2 0 .5-.5.8-1.1.8-2.7 0-27.9 22.6-27.9 25.1 0 .3-.9 1.7-2.1 3-2.8 3.2-11.9 18.6-11.9 20.2 0 .6-1.7-.6-3.7-2.7-7-7.2-18.9-14.7-30.8-19.6-11.2-4.5-21.1-6.1-39.9-6.3l-14.6-.2-.1-4c-.1-4.6-.1-8.9.1-12.5 0-1.4 0-11.2-.1-21.8 0-10.6.2-19.6.5-20 .4-.3 1.9-.8 3.4-1 9.6-1.2 20.3-11.4 22.9-21.7 1-4.2.9-13-.1-17.8-1.6-7-9-15.6-16.4-19-4.7-2.2-4.7-2.2-103.3-2.4l-98.6-.3-6.1 3.1zm150.6 59.3c.4.5.7 51.7.3 57.1-.1.7-15.1 1-45.8.9-25.2 0-46.3-.2-46.9-.2-.7-.1-1-9.6-1-29.2l-.1-28.9 2.6-.3c4.7-.5 90.3 0 90.9.6z"/></svg>